<svg xmlns="http://www.w3.org/2000/svg" width="400" height="400" viewBox="0 0 400 400" role="img" aria-label="deja-vu">
  <rect width="400" height="400" rx="88" fill="#1d1b2e"/>
  <!-- The cat is a 24x22 pixel sprite, the same grid cmd/deja/logo.go
     prints as half blocks. Coat, accent and features are the three
     colours xterm-256 holds exactly, so vector and terminal agree. -->
    <g fill="#8787af">
      <rect x="88" y="46" width="14" height="14"/>
      <rect x="270" y="46" width="14" height="14"/>
      <rect x="74" y="60" width="42" height="14"/>
      <rect x="256" y="60" width="42" height="14"/>
      <rect x="74" y="74" width="56" height="14"/>
      <rect x="242" y="74" width="56" height="14"/>
      <rect x="74" y="88" width="70" height="14"/>
      <rect x="228" y="88" width="70" height="14"/>
      <rect x="74" y="102" width="224" height="14"/>
      <rect x="60" y="116" width="252" height="14"/>
      <rect x="60" y="130" width="252" height="14"/>
      <rect x="60" y="144" width="252" height="14"/>
      <rect x="60" y="158" width="56" height="14"/>
      <rect x="144" y="158" width="84" height="14"/>
      <rect x="256" y="158" width="56" height="14"/>
      <rect x="60" y="172" width="42" height="14"/>
      <rect x="116" y="172" width="28" height="14"/>
      <rect x="158" y="172" width="56" height="14"/>
      <rect x="228" y="172" width="28" height="14"/>
      <rect x="270" y="172" width="42" height="14"/>
      <rect x="60" y="186" width="252" height="14"/>
      <rect x="60" y="200" width="112" height="14"/>
      <rect x="200" y="200" width="112" height="14"/>
      <rect x="60" y="214" width="112" height="14"/>
      <rect x="200" y="214" width="112" height="14"/>
      <rect x="74" y="228" width="84" height="14"/>
      <rect x="172" y="228" width="28" height="14"/>
      <rect x="214" y="228" width="84" height="14"/>
      <rect x="88" y="242" width="196" height="14"/>
      <rect x="298" y="242" width="28" height="14"/>
      <rect x="102" y="256" width="168" height="14"/>
      <rect x="298" y="256" width="28" height="14"/>
      <rect x="102" y="270" width="168" height="14"/>
      <rect x="298" y="270" width="28" height="14"/>
      <rect x="102" y="284" width="168" height="14"/>
      <rect x="298" y="284" width="28" height="14"/>
      <rect x="102" y="298" width="168" height="14"/>
      <rect x="298" y="298" width="28" height="14"/>
      <rect x="88" y="312" width="224" height="14"/>
      <rect x="88" y="326" width="224" height="14"/>
      <rect x="102" y="340" width="56" height="14"/>
      <rect x="214" y="340" width="56" height="14"/>
    </g>
    <g fill="#1c1c1c">
      <rect x="116" y="158" width="28" height="14"/>
      <rect x="228" y="158" width="28" height="14"/>
      <rect x="102" y="172" width="14" height="14"/>
      <rect x="144" y="172" width="14" height="14"/>
      <rect x="214" y="172" width="14" height="14"/>
      <rect x="256" y="172" width="14" height="14"/>
      <rect x="172" y="214" width="28" height="14"/>
      <rect x="158" y="228" width="14" height="14"/>
      <rect x="200" y="228" width="14" height="14"/>
    </g>
    <g fill="#ff8700">
      <rect x="172" y="200" width="28" height="14"/>
    </g>
</svg>
