<svg xmlns="http://www.w3.org/2000/svg" width="620" height="170" viewBox="0 0 620 170" role="img" aria-label="deja-vu">
  <!-- Generated by scripts/genlogo from internal/mark. Do not hand-edit: the
     sprite is the source, and the terminal banner draws from the same grid.
     Coat, accent and features are the three colours xterm-256 holds exactly,
     so vector and terminal agree. -->
  <style>
    .t1, .t2, .eyes-half, .eyes-shut, .ear-flick { opacity: 0 }
    /* Everything that deforms turns about the point between the front paws, so
       the cat is pressed into the ground rather than moved around above it. */
    .sway, .perk, .breathe { transform-origin: 108px 151px }
    @media (prefers-reduced-motion: no-preference) {
      /* The one continuous motion on the mark. Everything else cuts between
         poses; this eases, and a creature that is never perfectly still is the
         difference between an animal and a diagram. */
      .breathe { animation: dv-breathe 4.9s cubic-bezier(.4,0,.5,1) infinite }
      .perk    { animation: dv-perk 18.7s cubic-bezier(.33,0,.3,1) infinite }
      .sway    { animation: dv-sway 13.7s cubic-bezier(.45,0,.55,1) infinite }
      .t0  { animation: dv-t0 4.7s steps(1, end) infinite }
      .t1  { animation: dv-t1 4.7s steps(1, end) infinite }
      .t2  { animation: dv-t2 4.7s steps(1, end) infinite }
      .eyes-open { animation: dv-open 7.3s steps(1, end) infinite }
      .eyes-half { animation: dv-half 7.3s steps(1, end) infinite }
      .eyes-shut { animation: dv-shut 7.3s steps(1, end) infinite }
      .eyes { animation: dv-glance 9.7s cubic-bezier(.4,0,.5,1) infinite }
      .ear-up    { animation: dv-ear-up 11.3s steps(1, end) infinite }
      .ear-flick { animation: dv-ear 11.3s steps(1, end) infinite }
    }
    /* Draw in, hold at the top a moment, let it out. Taller is narrower: a body
       that gains height without losing width is inflating, not breathing. The
       pause at the top is what separates a breath from a pendulum. */
    @keyframes dv-breathe { 0% { transform: scale(1, 1) } 40%, 56% { transform: scale(.978, 1.026) } 100% { transform: scale(1, 1) } }
    /* Once every eighteen seconds or so it gathers itself and pops up, then
       rocks to a stop. Squash first, stretch second: the dip before a movement
       is what makes it read as intent rather than as a jolt, and the two
       shrinking bounces afterwards are what makes it read as weight. */
    @keyframes dv-perk {
      0%, 86% { transform: scale(1, 1) }
      88.4%   { transform: scale(1.055, .945) }
      90.8%   { transform: scale(.955, 1.068) }
      93.2%   { transform: scale(1.028, .975) }
      95.4%   { transform: scale(.988, 1.014) }
      97.4%, 100% { transform: scale(1, 1) }
    }
    /* And now and then it leans, once each way. The whole animal tips about its
       paws; there is no neck on this sprite to turn a head on. */
    @keyframes dv-sway { 0%, 26% { transform: rotate(0) } 38%, 47% { transform: rotate(2.1deg) } 58%, 66% { transform: rotate(0) } 76%, 85% { transform: rotate(-2.1deg) } 96%, 100% { transform: rotate(0) } }
    /* The tail rests for four fifths of its cycle, then sweeps out and back. */
    @keyframes dv-t0 { 0%, 79.9% { opacity: 1 } 80%, 96.9% { opacity: 0 } 97%, 100% { opacity: 1 } }
    @keyframes dv-t1 { 0%, 79.9% { opacity: 0 } 80%, 84.9% { opacity: 1 } 85%, 91.9% { opacity: 0 } 92%, 96.9% { opacity: 1 } 97%, 100% { opacity: 0 } }
    @keyframes dv-t2 { 0%, 84.9% { opacity: 0 } 85%, 91.9% { opacity: 1 } 92%, 100% { opacity: 0 } }
    /* One blink a cycle, down through the half-lid and back up: about a tenth
       of a second on each lid position and a sixth shut. Two blinks half a
       second apart, which is what this was, reads as a flutter. */
    @keyframes dv-open { 0%, 89.9% { opacity: 1 } 90%, 95.7% { opacity: 0 } 95.8%, 100% { opacity: 1 } }
    @keyframes dv-half { 0%, 89.9% { opacity: 0 } 90%, 91.6% { opacity: 1 } 91.7%, 94.1% { opacity: 0 } 94.2%, 95.7% { opacity: 1 } 95.8%, 100% { opacity: 0 } }
    @keyframes dv-shut { 0%, 91.6% { opacity: 0 } 91.7%, 94.1% { opacity: 1 } 94.2%, 100% { opacity: 0 } }
    /* Looks aside, holds it a moment, looks back. */
    @keyframes dv-glance { 0%, 70% { transform: translateX(0) } 74%, 84% { transform: translateX(6px) } 88%, 100% { transform: translateX(0) } }
    @keyframes dv-ear { 0%, 96.9% { opacity: 0 } 97%, 99.4% { opacity: 1 } 99.5%, 100% { opacity: 0 } }
    @keyframes dv-ear-up { 0%, 96.9% { opacity: 1 } 97%, 99.4% { opacity: 0 } 99.5%, 100% { opacity: 1 } }
  </style>
  <g class="sway">
   <g class="perk">
    <g class="breathe">
     <path fill="#8787af" stroke="#8787af" stroke-width="1" d="M54 43h96v6h-96ZM48 49h108v36h-108ZM48 85h48v6h-48ZM108 85h48v6h-48ZM48 91h108v6h-108ZM54 97h96v6h-96ZM60 103h84v6h-84ZM66 109h72v24h-72ZM60 133h84v12h-84ZM66 145h24v6h-24ZM114 145h24v6h-24Z"/>
     <path fill="#ff8700" stroke="#ff8700" stroke-width="1" d="M96 85h12v6h-12Z"/>
  <g class="t0"><path fill="#8787af" stroke="#8787af" stroke-width="1" d="M150 103h12v30h-12ZM144 133h12v12h-12Z"/></g>
  <g class="t1"><path fill="#8787af" stroke="#8787af" stroke-width="1" d="M156 103h12v6h-12ZM150 109h12v24h-12ZM144 133h12v12h-12Z"/></g>
  <g class="t2"><path fill="#8787af" stroke="#8787af" stroke-width="1" d="M162 103h12v6h-12ZM156 109h12v6h-12ZM150 115h12v18h-12ZM144 133h12v12h-12Z"/></g>
  <g class="eyes">
    <g class="eyes-open"><path fill="#1c1c1c" d="M66 61h12v18h-12ZM126 61h12v18h-12Z"/></g>
    <g class="eyes-half"><path fill="#1c1c1c" d="M66 67h12v12h-12ZM126 67h12v12h-12Z"/></g>
    <g class="eyes-shut"><path fill="#1c1c1c" d="M60 73h24v6h-24ZM120 73h24v6h-24Z"/></g>
  </g>
  <g class="ear-up"><path fill="#8787af" stroke="#8787af" stroke-width="1" d="M60 19h6v6h-6ZM138 19h6v6h-6ZM54 25h18v6h-18ZM132 25h18v6h-18ZM54 31h24v6h-24ZM126 31h24v6h-24ZM54 37h30v6h-30ZM120 37h30v6h-30Z"/></g>
  <g class="ear-flick"><path fill="#8787af" stroke="#8787af" stroke-width="1" d="M60 19h6v6h-6ZM54 25h18v6h-18ZM54 31h24v6h-24ZM132 31h18v6h-18ZM54 37h30v6h-30ZM120 37h30v6h-30Z"/></g>
    </g>
   </g>
  </g>
  <g font-family="SF Mono, JetBrains Mono, Fira Code, Menlo, monospace">
    <text x="208" y="105" font-size="72" font-weight="700" fill="#e8e6f0">deja-vu</text>
  </g>
</svg>
