<svg xmlns="http://www.w3.org/2000/svg" width="400" height="400" viewBox="0 0 400 400" role="img" aria-label="deja-vu">
  <rect width="400" height="400" rx="88" fill="#1d1b2e"/>
  <!-- Generated by scripts/genlogo from internal/mark. Do not hand-edit: the
     sprite is the source, and the terminal banner draws from the same grid.
     Coat, accent and features are the three colours xterm-256 holds exactly,
     so vector and terminal agree. -->
  <path fill="#8787af" d="M92 116h192v12h-192ZM80 128h216v12h-216ZM80 140h216v12h-216ZM80 152h216v12h-216ZM80 164h216v12h-216ZM80 176h216v12h-216ZM80 188h216v12h-216ZM80 200h96v12h-96ZM200 200h96v12h-96ZM80 212h216v12h-216ZM92 224h192v12h-192ZM104 236h168v12h-168ZM116 248h144v12h-144ZM116 260h144v12h-144ZM116 272h144v12h-144ZM116 284h144v12h-144ZM104 296h168v12h-168ZM104 308h168v12h-168ZM116 320h48v12h-48ZM212 320h48v12h-48Z"/>
  <path fill="#ff8700" d="M176 200h24v12h-24Z"/>
  <g class="t0"><path fill="#8787af" d="M284 236h24v12h-24ZM284 248h24v12h-24ZM284 260h24v12h-24ZM284 272h24v12h-24ZM284 284h24v12h-24ZM272 296h24v12h-24ZM272 308h24v12h-24Z"/></g>
  <g class="t1"><path fill="#8787af" d="M296 236h24v12h-24ZM284 248h24v12h-24ZM284 260h24v12h-24ZM284 272h24v12h-24ZM284 284h24v12h-24ZM272 296h24v12h-24ZM272 308h24v12h-24Z"/></g>
  <g class="t2"><path fill="#8787af" d="M308 236h24v12h-24ZM296 248h24v12h-24ZM284 260h24v12h-24ZM284 272h24v12h-24ZM284 284h24v12h-24ZM272 296h24v12h-24ZM272 308h24v12h-24Z"/></g>
  <g class="eyes-open"><path fill="#1c1c1c" d="M116 152h24v12h-24ZM236 152h24v12h-24ZM116 164h24v12h-24ZM236 164h24v12h-24ZM116 176h24v12h-24ZM236 176h24v12h-24Z"/></g>
  <g class="eyes-shut"><path fill="#1c1c1c" d="M104 176h48v12h-48ZM224 176h48v12h-48Z"/></g>
  <g class="ear-up"><path fill="#8787af" d="M104 68h12v12h-12ZM260 68h12v12h-12ZM92 80h36v12h-36ZM248 80h36v12h-36ZM92 92h48v12h-48ZM236 92h48v12h-48ZM92 104h60v12h-60ZM224 104h60v12h-60Z"/></g>
  <g class="ear-flick"><path fill="#8787af" d="M104 68h12v12h-12ZM92 80h36v12h-36ZM92 92h48v12h-48ZM248 92h36v12h-36ZM92 104h60v12h-60ZM224 104h60v12h-60Z"/></g>
  <style>
    .t1, .t2, .eyes-shut, .ear-flick { opacity: 0 }
    @media (prefers-reduced-motion: no-preference) {
      .t0  { animation: dv-t0 4.7s steps(1, end) infinite }
      .t1  { animation: dv-t1 4.7s steps(1, end) infinite }
      .t2  { animation: dv-t2 4.7s steps(1, end) infinite }
      .eyes-open { animation: dv-open 7.3s steps(1, end) infinite }
      .eyes-shut { animation: dv-shut 7.3s steps(1, end) infinite }
      .ear-up { animation: dv-ear-up 11.3s steps(1, end) infinite }
      .ear-flick { animation: dv-ear 11.3s steps(1, end) infinite }
    }
    /* The tail rests for four fifths of its cycle, then sweeps out and back:
       up, mid, out, mid, and still again. */
    @keyframes dv-t0 { 0%, 79.9% { opacity: 1 } 80%, 96.9% { opacity: 0 } 97%, 100% { opacity: 1 } }
    @keyframes dv-t1 { 0%, 79.9% { opacity: 0 } 80%, 84.9% { opacity: 1 } 85%, 91.9% { opacity: 0 } 92%, 96.9% { opacity: 1 } 97%, 100% { opacity: 0 } }
    @keyframes dv-t2 { 0%, 84.9% { opacity: 0 } 85%, 91.9% { opacity: 1 } 92%, 100% { opacity: 0 } }
    /* Two blinks, not one: a quick one, then a slower one a beat later, which
       is what a cat does and what a metronome does not. */
    @keyframes dv-open { 0%, 87.9% { opacity: 1 } 88%, 90.4% { opacity: 0 } 90.5%, 95.9% { opacity: 1 } 96%, 99.4% { opacity: 0 } 99.5%, 100% { opacity: 1 } }
    @keyframes dv-shut { 0%, 87.9% { opacity: 0 } 88%, 90.4% { opacity: 1 } 90.5%, 95.9% { opacity: 0 } 96%, 99.4% { opacity: 1 } 99.5%, 100% { opacity: 0 } }
    /* One flick, and it is over before you are sure you saw it. */
    @keyframes dv-ear { 0%, 96.9% { opacity: 0 } 97%, 99.4% { opacity: 1 } 99.5%, 100% { opacity: 0 } }
    @keyframes dv-ear-up { 0%, 96.9% { opacity: 1 } 97%, 99.4% { opacity: 0 } 99.5%, 100% { opacity: 1 } }
  </style>
</svg>
