<svg xmlns="http://www.w3.org/2000/svg" width="400" height="400" viewBox="0 0 400 400" role="img" aria-label="deja-vu">
  <rect width="400" height="400" rx="88" fill="#1d1b2e"/>
  <!-- Generated by scripts/genlogo from internal/mark. Do not hand-edit: the
     sprite is the source, and the terminal banner draws from the same grid.
     Coat, accent and features are the three colours xterm-256 holds exactly,
     so vector and terminal agree. -->
  <style>
    .t1, .t2, .eyes-half, .eyes-shut, .ear-flick { opacity: 0 }
    @media (prefers-reduced-motion: no-preference) {
      /* The one continuous motion on the mark. Everything else cuts between
         poses; this eases, and a creature that is never perfectly still is the
         difference between an animal and a diagram. It moves the chest and the
         head only: moving the paws too was the first version, and a cat whose
         feet leave the ground is not breathing, it is floating. */
      .breathe { animation: dv-breathe 4.3s cubic-bezier(.37,0,.4,1) infinite }
      .settle  { animation: dv-settle 17.9s cubic-bezier(.3,0,.3,1) infinite }
      .t0  { animation: dv-t0 4.7s steps(1, end) infinite }
      .t1  { animation: dv-t1 4.7s steps(1, end) infinite }
      .t2  { animation: dv-t2 4.7s steps(1, end) infinite }
      .eyes-open { animation: dv-open 7.3s steps(1, end) infinite }
      .eyes-half { animation: dv-half 7.3s steps(1, end) infinite }
      .eyes-shut { animation: dv-shut 7.3s steps(1, end) infinite }
      .eyes { animation: dv-glance 9.7s cubic-bezier(.4,0,.5,1) infinite }
      .ear-up    { animation: dv-ear-up 11.3s steps(1, end) infinite }
      .ear-flick { animation: dv-ear 11.3s steps(1, end) infinite }
    }
    /* Draw in, hold at the top a moment, let it out. A symmetric rise and fall
       is a pendulum; the pause at the top is the part that reads as a breath. */
    @keyframes dv-breathe { 0% { transform: translateY(0) } 40%, 56% { transform: translateY(-12px) } 100% { transform: translateY(0) } }
    /* Every fifteen seconds or so the cat sinks and shrugs itself back up, twice,
       the way one shifts its weight without getting up. It only ever goes down:
       the chest is drawn from the same row the haunches start at, so anything
       upward past one cell would open a gap between the two. */
    @keyframes dv-settle { 0%, 84% { transform: translateY(0) } 87%, 88.5% { transform: translateY(12px) } 91% { transform: translateY(0) } 93%, 94% { transform: translateY(12px) } 97%, 100% { transform: translateY(0) } }
    /* The tail rests for four fifths of its cycle, then sweeps out and back. */
    @keyframes dv-t0 { 0%, 79.9% { opacity: 1 } 80%, 96.9% { opacity: 0 } 97%, 100% { opacity: 1 } }
    @keyframes dv-t1 { 0%, 79.9% { opacity: 0 } 80%, 84.9% { opacity: 1 } 85%, 91.9% { opacity: 0 } 92%, 96.9% { opacity: 1 } 97%, 100% { opacity: 0 } }
    @keyframes dv-t2 { 0%, 84.9% { opacity: 0 } 85%, 91.9% { opacity: 1 } 92%, 100% { opacity: 0 } }
    /* One blink a cycle, down through the half-lid and back up: about a tenth
       of a second on each lid position and a sixth shut. Two blinks half a
       second apart, which is what this was, reads as a flutter. */
    @keyframes dv-open { 0%, 89.9% { opacity: 1 } 90%, 95.7% { opacity: 0 } 95.8%, 100% { opacity: 1 } }
    @keyframes dv-half { 0%, 89.9% { opacity: 0 } 90%, 91.6% { opacity: 1 } 91.7%, 94.1% { opacity: 0 } 94.2%, 95.7% { opacity: 1 } 95.8%, 100% { opacity: 0 } }
    @keyframes dv-shut { 0%, 91.6% { opacity: 0 } 91.7%, 94.1% { opacity: 1 } 94.2%, 100% { opacity: 0 } }
    /* Looks aside, holds it a moment, looks back. */
    @keyframes dv-glance { 0%, 70% { transform: translateX(0) } 74%, 84% { transform: translateX(12px) } 88%, 100% { transform: translateX(0) } }
    @keyframes dv-ear { 0%, 96.9% { opacity: 0 } 97%, 99.4% { opacity: 1 } 99.5%, 100% { opacity: 0 } }
    @keyframes dv-ear-up { 0%, 96.9% { opacity: 1 } 97%, 99.4% { opacity: 0 } 99.5%, 100% { opacity: 1 } }
  </style>
  <g class="t0"><path fill="#8787af" d="M284 236h24v12h-24ZM284 248h24v12h-24ZM284 260h24v12h-24ZM284 272h24v12h-24ZM284 284h24v12h-24ZM272 296h24v12h-24ZM272 308h24v12h-24Z"/></g>
  <g class="t1"><path fill="#8787af" d="M296 236h24v12h-24ZM284 248h24v12h-24ZM284 260h24v12h-24ZM284 272h24v12h-24ZM284 284h24v12h-24ZM272 296h24v12h-24ZM272 308h24v12h-24Z"/></g>
  <g class="t2"><path fill="#8787af" d="M308 236h24v12h-24ZM296 248h24v12h-24ZM284 260h24v12h-24ZM284 272h24v12h-24ZM284 284h24v12h-24ZM272 296h24v12h-24ZM272 308h24v12h-24Z"/></g>
  <path fill="#8787af" d="M80 176h216v12h-216ZM80 188h216v12h-216ZM80 200h96v12h-96ZM200 200h96v12h-96ZM80 212h216v12h-216ZM92 224h192v12h-192ZM104 236h168v12h-168ZM116 248h144v12h-144ZM116 260h144v12h-144ZM116 272h144v12h-144ZM116 284h144v12h-144ZM104 296h168v12h-168ZM104 308h168v12h-168ZM116 320h48v12h-48ZM212 320h48v12h-48Z"/>
  <path fill="#ff8700" d="M176 200h24v12h-24Z"/>
  <g class="settle">
   <g class="breathe">
    <path fill="#8787af" d="M104 68h12v12h-12ZM260 68h12v12h-12ZM92 80h36v12h-36ZM248 80h36v12h-36ZM92 92h48v12h-48ZM236 92h48v12h-48ZM92 104h60v12h-60ZM224 104h60v12h-60ZM92 116h192v12h-192ZM80 128h216v12h-216ZM80 140h216v12h-216ZM80 152h216v12h-216ZM80 164h216v12h-216ZM80 176h216v12h-216Z"/>
  <g class="eyes">
    <g class="eyes-open"><path fill="#1c1c1c" d="M116 152h24v12h-24ZM236 152h24v12h-24ZM116 164h24v12h-24ZM236 164h24v12h-24ZM116 176h24v12h-24ZM236 176h24v12h-24Z"/></g>
    <g class="eyes-half"><path fill="#1c1c1c" d="M116 164h24v12h-24ZM236 164h24v12h-24ZM116 176h24v12h-24ZM236 176h24v12h-24Z"/></g>
    <g class="eyes-shut"><path fill="#1c1c1c" d="M104 176h48v12h-48ZM224 176h48v12h-48Z"/></g>
  </g>
  <g class="ear-up"><path fill="#8787af" d="M104 68h12v12h-12ZM260 68h12v12h-12ZM92 80h36v12h-36ZM248 80h36v12h-36ZM92 92h48v12h-48ZM236 92h48v12h-48ZM92 104h60v12h-60ZM224 104h60v12h-60Z"/></g>
  <g class="ear-flick"><path fill="#8787af" d="M104 68h12v12h-12ZM92 80h36v12h-36ZM92 92h48v12h-48ZM248 92h36v12h-36ZM92 104h60v12h-60ZM224 104h60v12h-60Z"/></g>
   </g>
  </g>
</svg>
