<?xml version="1.0" encoding="UTF-8"?>
<svg xmlns="http://www.w3.org/2000/svg" width="800" height="420" viewBox="0 0 800 420">
<defs>
<linearGradient id="dg" x1="0" y1="0" x2="1" y2="1"><stop offset="0" stop-color="#7c6cf0"/><stop offset="1" stop-color="#4ecdc4"/></linearGradient>
<pattern id="scan" width="4" height="3" patternUnits="userSpaceOnUse"><rect width="4" height="1" y="2" fill="#000000" fill-opacity="0.16"/></pattern>
</defs>
<rect width="800" height="420" fill="#050807"/>
<rect x="0.5" y="0.5" width="799" height="419" fill="none" stroke="#12291c"/>
<g font-family="ui-monospace, SFMono-Regular, Menlo, monospace" fill="#d7f5e2">
<g transform="translate(36,26) scale(0.185)"><path d="M64 16 A48 48 0 1 0 112 64" fill="none" stroke="url(#dg)" stroke-width="14" stroke-linecap="round"/><path d="M112 64 l-20 -14 M112 64 l-24 6" fill="none" stroke="url(#dg)" stroke-width="14" stroke-linecap="round"/><circle cx="64" cy="64" r="8" fill="url(#dg)"/></g>
<text x="70" y="48" font-size="15" font-weight="700" fill="#4af08b" letter-spacing="0.5">deja-vu</text>
<text x="145" y="48" font-size="13" font-weight="400" fill="#5d8a6e">· agent history</text>
<text x="760" y="48" font-size="13" font-weight="400" fill="#5d8a6e" text-anchor="end">2025-08-25 – 2026-08-14</text>
<text x="40" y="90" font-size="21" font-weight="800" fill="#eafff2">You asked the same thing 18 times<tspan fill="#ffb454"> — deja remembered.</tspan></text>
<text x="44" y="122" font-size="10" font-weight="400" fill="#5d8a6e">Jul</text>
<text x="83" y="122" font-size="10" font-weight="400" fill="#5d8a6e">Aug</text>
<text x="148" y="122" font-size="10" font-weight="400" fill="#5d8a6e">Sep</text>
<text x="200" y="122" font-size="10" font-weight="400" fill="#5d8a6e">Oct</text>
<text x="252" y="122" font-size="10" font-weight="400" fill="#5d8a6e">Nov</text>
<text x="317" y="122" font-size="10" font-weight="400" fill="#5d8a6e">Dec</text>
<text x="369" y="122" font-size="10" font-weight="400" fill="#5d8a6e">Jan</text>
<text x="421" y="122" font-size="10" font-weight="400" fill="#5d8a6e">Feb</text>
<text x="473" y="122" font-size="10" font-weight="400" fill="#5d8a6e">Mar</text>
<text x="538" y="122" font-size="10" font-weight="400" fill="#5d8a6e">Apr</text>
<text x="590" y="122" font-size="10" font-weight="400" fill="#5d8a6e">May</text>
<text x="655" y="122" font-size="10" font-weight="400" fill="#5d8a6e">Jun</text>
<text x="707" y="122" font-size="10" font-weight="400" fill="#5d8a6e">Jul</text>
<rect x="44" y="128" width="11" height="11" rx="2" fill="#0b1410" opacity="1.00"/>
<rect x="44" y="141" width="11" height="11" rx="2" fill="#0b1410" opacity="1.00"/>
<rect x="44" y="154" width="11" height="11" rx="2" fill="#0b1410" opacity="1.00"/>
<rect x="44" y="167" width="11" height="11" rx="2" fill="#0b1410" opacity="1.00"/>
<rect x="44" y="180" width="11" height="11" rx="2" fill="#0b1410" opacity="1.00"/>
<rect x="44" y="193" width="11" height="11" rx="2" fill="#0b1410" opacity="1.00"/>
<rect x="44" y="206" width="11" height="11" rx="2" fill="#0b1410" opacity="1.00"/>
<rect x="57" y="128" width="11" height="11" rx="2" fill="#0b1410" opacity="1.00"/>
<rect x="57" y="141" width="11" height="11" rx="2" fill="#0b1410" opacity="1.00"/>
<rect x="57" y="154" width="11" height="11" rx="2" fill="#0b1410" opacity="1.00"/>
<rect x="57" y="167" width="11" height="11" rx="2" fill="#0b1410" opacity="1.00"/>
<rect x="57" y="180" width="11" height="11" rx="2" fill="#0b1410" opacity="1.00"/>
<rect x="57" y="193" width="11" height="11" rx="2" fill="#0b1410" opacity="1.00"/>
<rect x="57" y="206" width="11" height="11" rx="2" fill="#0b1410" opacity="1.00"/>
<rect x="70" y="128" width="11" height="11" rx="2" fill="#0b1410" opacity="1.00"/>
<rect x="70" y="141" width="11" height="11" rx="2" fill="#0b1410" opacity="1.00"/>
<rect x="70" y="154" width="11" height="11" rx="2" fill="#0b1410" opacity="1.00"/>
<rect x="70" y="167" width="11" height="11" rx="2" fill="#0b1410" opacity="1.00"/>
<rect x="70" y="180" width="11" height="11" rx="2" fill="#0b1410" opacity="1.00"/>
<rect x="70" y="193" width="11" height="11" rx="2" fill="#0b1410" opacity="1.00"/>
<rect x="70" y="206" width="11" height="11" rx="2" fill="#0b1410" opacity="1.00"/>
<rect x="83" y="128" width="11" height="11" rx="2" fill="#0b1410" opacity="1.00"/>
<rect x="83" y="141" width="11" height="11" rx="2" fill="#0b1410" opacity="1.00"/>
<rect x="83" y="154" width="11" height="11" rx="2" fill="#0b1410" opacity="1.00"/>
<rect x="83" y="167" width="11" height="11" rx="2" fill="#0b1410" opacity="1.00"/>
<rect x="83" y="180" width="11" height="11" rx="2" fill="#0b1410" opacity="1.00"/>
<rect x="83" y="193" width="11" height="11" rx="2" fill="#0b1410" opacity="1.00"/>
<rect x="83" y="206" width="11" height="11" rx="2" fill="#0b1410" opacity="1.00"/>
<rect x="96" y="128" width="11" height="11" rx="2" fill="#0b1410" opacity="1.00"/>
<rect x="96" y="141" width="11" height="11" rx="2" fill="#0b1410" opacity="1.00"/>
<rect x="96" y="154" width="11" height="11" rx="2" fill="#0b1410" opacity="1.00"/>
<rect x="96" y="167" width="11" height="11" rx="2" fill="#0b1410" opacity="1.00"/>
<rect x="96" y="180" width="11" height="11" rx="2" fill="#0b1410" opacity="1.00"/>
<rect x="96" y="193" width="11" height="11" rx="2" fill="#0b1410" opacity="1.00"/>
<rect x="96" y="206" width="11" height="11" rx="2" fill="#0b1410" opacity="1.00"/>
<rect x="109" y="128" width="11" height="11" rx="2" fill="#0b1410" opacity="1.00"/>
<rect x="109" y="141" width="11" height="11" rx="2" fill="#0b1410" opacity="1.00"/>
<rect x="109" y="154" width="11" height="11" rx="2" fill="#0b1410" opacity="1.00"/>
<rect x="109" y="167" width="11" height="11" rx="2" fill="#0b1410" opacity="1.00"/>
<rect x="109" y="180" width="11" height="11" rx="2" fill="#0b1410" opacity="1.00"/>
<rect x="109" y="193" width="11" height="11" rx="2" fill="#0b1410" opacity="1.00"/>
<rect x="109" y="206" width="11" height="11" rx="2" fill="#0b1410" opacity="1.00"/>
<rect x="122" y="128" width="11" height="11" rx="2" fill="#0b1410" opacity="1.00"/>
<rect x="122" y="141" width="11" height="11" rx="2" fill="#4af08b" opacity="0.28"/>
<rect x="122" y="154" width="11" height="11" rx="2" fill="#0b1410" opacity="1.00"/>
<rect x="122" y="167" width="11" height="11" rx="2" fill="#4af08b" opacity="0.28"/>
<rect x="122" y="180" width="11" height="11" rx="2" fill="#0b1410" opacity="1.00"/>
<rect x="122" y="193" width="11" height="11" rx="2" fill="#0b1410" opacity="1.00"/>
<rect x="122" y="206" width="11" height="11" rx="2" fill="#0b1410" opacity="1.00"/>
<rect x="135" y="128" width="11" height="11" rx="2" fill="#4af08b" opacity="0.50"/>
<rect x="135" y="141" width="11" height="11" rx="2" fill="#0b1410" opacity="1.00"/>
<rect x="135" y="154" width="11" height="11" rx="2" fill="#0b1410" opacity="1.00"/>
<rect x="135" y="167" width="11" height="11" rx="2" fill="#0b1410" opacity="1.00"/>
<rect x="135" y="180" width="11" height="11" rx="2" fill="#0b1410" opacity="1.00"/>
<rect x="135" y="193" width="11" height="11" rx="2" fill="#0b1410" opacity="1.00"/>
<rect x="135" y="206" width="11" height="11" rx="2" fill="#0b1410" opacity="1.00"/>
<rect x="148" y="128" width="11" height="11" rx="2" fill="#0b1410" opacity="1.00"/>
<rect x="148" y="141" width="11" height="11" rx="2" fill="#0b1410" opacity="1.00"/>
<rect x="148" y="154" width="11" height="11" rx="2" fill="#4af08b" opacity="0.28"/>
<rect x="148" y="167" width="11" height="11" rx="2" fill="#0b1410" opacity="1.00"/>
<rect x="148" y="180" width="11" height="11" rx="2" fill="#0b1410" opacity="1.00"/>
<rect x="148" y="193" width="11" height="11" rx="2" fill="#4af08b" opacity="0.28"/>
<rect x="148" y="206" width="11" height="11" rx="2" fill="#0b1410" opacity="1.00"/>
<rect x="161" y="128" width="11" height="11" rx="2" fill="#0b1410" opacity="1.00"/>
<rect x="161" y="141" width="11" height="11" rx="2" fill="#0b1410" opacity="1.00"/>
<rect x="161" y="154" width="11" height="11" rx="2" fill="#0b1410" opacity="1.00"/>
<rect x="161" y="167" width="11" height="11" rx="2" fill="#0b1410" opacity="1.00"/>
<rect x="161" y="180" width="11" height="11" rx="2" fill="#0b1410" opacity="1.00"/>
<rect x="161" y="193" width="11" height="11" rx="2" fill="#0b1410" opacity="1.00"/>
<rect x="161" y="206" width="11" height="11" rx="2" fill="#4af08b" opacity="0.28"/>
<rect x="174" y="128" width="11" height="11" rx="2" fill="#0b1410" opacity="1.00"/>
<rect x="174" y="141" width="11" height="11" rx="2" fill="#0b1410" opacity="1.00"/>
<rect x="174" y="154" width="11" height="11" rx="2" fill="#0b1410" opacity="1.00"/>
<rect x="174" y="167" width="11" height="11" rx="2" fill="#0b1410" opacity="1.00"/>
<rect x="174" y="180" width="11" height="11" rx="2" fill="#0b1410" opacity="1.00"/>
<rect x="174" y="193" width="11" height="11" rx="2" fill="#0b1410" opacity="1.00"/>
<rect x="174" y="206" width="11" height="11" rx="2" fill="#4af08b" opacity="0.28"/>
<rect x="187" y="128" width="11" height="11" rx="2" fill="#0b1410" opacity="1.00"/>
<rect x="187" y="141" width="11" height="11" rx="2" fill="#0b1410" opacity="1.00"/>
<rect x="187" y="154" width="11" height="11" rx="2" fill="#0b1410" opacity="1.00"/>
<rect x="187" y="167" width="11" height="11" rx="2" fill="#0b1410" opacity="1.00"/>
<rect x="187" y="180" width="11" height="11" rx="2" fill="#0b1410" opacity="1.00"/>
<rect x="187" y="193" width="11" height="11" rx="2" fill="#0b1410" opacity="1.00"/>
<rect x="187" y="206" width="11" height="11" rx="2" fill="#4af08b" opacity="0.28"/>
<rect x="200" y="128" width="11" height="11" rx="2" fill="#0b1410" opacity="1.00"/>
<rect x="200" y="141" width="11" height="11" rx="2" fill="#0b1410" opacity="1.00"/>
<rect x="200" y="154" width="11" height="11" rx="2" fill="#0b1410" opacity="1.00"/>
<rect x="200" y="167" width="11" height="11" rx="2" fill="#0b1410" opacity="1.00"/>
<rect x="200" y="180" width="11" height="11" rx="2" fill="#0b1410" opacity="1.00"/>
<rect x="200" y="193" width="11" height="11" rx="2" fill="#0b1410" opacity="1.00"/>
<rect x="200" y="206" width="11" height="11" rx="2" fill="#0b1410" opacity="1.00"/>
<rect x="213" y="128" width="11" height="11" rx="2" fill="#4af08b" opacity="0.50"/>
<rect x="213" y="141" width="11" height="11" rx="2" fill="#0b1410" opacity="1.00"/>
<rect x="213" y="154" width="11" height="11" rx="2" fill="#4af08b" opacity="0.50"/>
<rect x="213" y="167" width="11" height="11" rx="2" fill="#0b1410" opacity="1.00"/>
<rect x="213" y="180" width="11" height="11" rx="2" fill="#0b1410" opacity="1.00"/>
<rect x="213" y="193" width="11" height="11" rx="2" fill="#0b1410" opacity="1.00"/>
<rect x="213" y="206" width="11" height="11" rx="2" fill="#0b1410" opacity="1.00"/>
<rect x="226" y="128" width="11" height="11" rx="2" fill="#0b1410" opacity="1.00"/>
<rect x="226" y="141" width="11" height="11" rx="2" fill="#0b1410" opacity="1.00"/>
<rect x="226" y="154" width="11" height="11" rx="2" fill="#0b1410" opacity="1.00"/>
<rect x="226" y="167" width="11" height="11" rx="2" fill="#0b1410" opacity="1.00"/>
<rect x="226" y="180" width="11" height="11" rx="2" fill="#0b1410" opacity="1.00"/>
<rect x="226" y="193" width="11" height="11" rx="2" fill="#0b1410" opacity="1.00"/>
<rect x="226" y="206" width="11" height="11" rx="2" fill="#0b1410" opacity="1.00"/>
<rect x="239" y="128" width="11" height="11" rx="2" fill="#0b1410" opacity="1.00"/>
<rect x="239" y="141" width="11" height="11" rx="2" fill="#0b1410" opacity="1.00"/>
<rect x="239" y="154" width="11" height="11" rx="2" fill="#0b1410" opacity="1.00"/>
<rect x="239" y="167" width="11" height="11" rx="2" fill="#0b1410" opacity="1.00"/>
<rect x="239" y="180" width="11" height="11" rx="2" fill="#0b1410" opacity="1.00"/>
<rect x="239" y="193" width="11" height="11" rx="2" fill="#4af08b" opacity="0.50"/>
<rect x="239" y="206" width="11" height="11" rx="2" fill="#0b1410" opacity="1.00"/>
<rect x="252" y="128" width="11" height="11" rx="2" fill="#0b1410" opacity="1.00"/>
<rect x="252" y="141" width="11" height="11" rx="2" fill="#4af08b" opacity="0.50"/>
<rect x="252" y="154" width="11" height="11" rx="2" fill="#4af08b" opacity="0.28"/>
<rect x="252" y="167" width="11" height="11" rx="2" fill="#0b1410" opacity="1.00"/>
<rect x="252" y="180" width="11" height="11" rx="2" fill="#0b1410" opacity="1.00"/>
<rect x="252" y="193" width="11" height="11" rx="2" fill="#4af08b" opacity="0.50"/>
<rect x="252" y="206" width="11" height="11" rx="2" fill="#0b1410" opacity="1.00"/>
<rect x="265" y="128" width="11" height="11" rx="2" fill="#0b1410" opacity="1.00"/>
<rect x="265" y="141" width="11" height="11" rx="2" fill="#0b1410" opacity="1.00"/>
<rect x="265" y="154" width="11" height="11" rx="2" fill="#0b1410" opacity="1.00"/>
<rect x="265" y="167" width="11" height="11" rx="2" fill="#0b1410" opacity="1.00"/>
<rect x="265" y="180" width="11" height="11" rx="2" fill="#4af08b" opacity="0.50"/>
<rect x="265" y="193" width="11" height="11" rx="2" fill="#0b1410" opacity="1.00"/>
<rect x="265" y="206" width="11" height="11" rx="2" fill="#0b1410" opacity="1.00"/>
<rect x="278" y="128" width="11" height="11" rx="2" fill="#0b1410" opacity="1.00"/>
<rect x="278" y="141" width="11" height="11" rx="2" fill="#4af08b" opacity="0.28"/>
<rect x="278" y="154" width="11" height="11" rx="2" fill="#0b1410" opacity="1.00"/>
<rect x="278" y="167" width="11" height="11" rx="2" fill="#0b1410" opacity="1.00"/>
<rect x="278" y="180" width="11" height="11" rx="2" fill="#0b1410" opacity="1.00"/>
<rect x="278" y="193" width="11" height="11" rx="2" fill="#0b1410" opacity="1.00"/>
<rect x="278" y="206" width="11" height="11" rx="2" fill="#0b1410" opacity="1.00"/>
<rect x="291" y="128" width="11" height="11" rx="2" fill="#0b1410" opacity="1.00"/>
<rect x="291" y="141" width="11" height="11" rx="2" fill="#4af08b" opacity="0.50"/>
<rect x="291" y="154" width="11" height="11" rx="2" fill="#0b1410" opacity="1.00"/>
<rect x="291" y="167" width="11" height="11" rx="2" fill="#0b1410" opacity="1.00"/>
<rect x="291" y="180" width="11" height="11" rx="2" fill="#0b1410" opacity="1.00"/>
<rect x="291" y="193" width="11" height="11" rx="2" fill="#0b1410" opacity="1.00"/>
<rect x="291" y="206" width="11" height="11" rx="2" fill="#0b1410" opacity="1.00"/>
<rect x="304" y="128" width="11" height="11" rx="2" fill="#0b1410" opacity="1.00"/>
<rect x="304" y="141" width="11" height="11" rx="2" fill="#0b1410" opacity="1.00"/>
<rect x="304" y="154" width="11" height="11" rx="2" fill="#0b1410" opacity="1.00"/>
<rect x="304" y="167" width="11" height="11" rx="2" fill="#4af08b" opacity="0.50"/>
<rect x="304" y="180" width="11" height="11" rx="2" fill="#0b1410" opacity="1.00"/>
<rect x="304" y="193" width="11" height="11" rx="2" fill="#4af08b" opacity="0.50"/>
<rect x="304" y="206" width="11" height="11" rx="2" fill="#0b1410" opacity="1.00"/>
<rect x="317" y="128" width="11" height="11" rx="2" fill="#0b1410" opacity="1.00"/>
<rect x="317" y="141" width="11" height="11" rx="2" fill="#0b1410" opacity="1.00"/>
<rect x="317" y="154" width="11" height="11" rx="2" fill="#0b1410" opacity="1.00"/>
<rect x="317" y="167" width="11" height="11" rx="2" fill="#0b1410" opacity="1.00"/>
<rect x="317" y="180" width="11" height="11" rx="2" fill="#4af08b" opacity="0.50"/>
<rect x="317" y="193" width="11" height="11" rx="2" fill="#0b1410" opacity="1.00"/>
<rect x="317" y="206" width="11" height="11" rx="2" fill="#0b1410" opacity="1.00"/>
<rect x="330" y="128" width="11" height="11" rx="2" fill="#0b1410" opacity="1.00"/>
<rect x="330" y="141" width="11" height="11" rx="2" fill="#0b1410" opacity="1.00"/>
<rect x="330" y="154" width="11" height="11" rx="2" fill="#0b1410" opacity="1.00"/>
<rect x="330" y="167" width="11" height="11" rx="2" fill="#4af08b" opacity="0.50"/>
<rect x="330" y="180" width="11" height="11" rx="2" fill="#0b1410" opacity="1.00"/>
<rect x="330" y="193" width="11" height="11" rx="2" fill="#0b1410" opacity="1.00"/>
<rect x="330" y="206" width="11" height="11" rx="2" fill="#0b1410" opacity="1.00"/>
<rect x="343" y="128" width="11" height="11" rx="2" fill="#0b1410" opacity="1.00"/>
<rect x="343" y="141" width="11" height="11" rx="2" fill="#0b1410" opacity="1.00"/>
<rect x="343" y="154" width="11" height="11" rx="2" fill="#0b1410" opacity="1.00"/>
<rect x="343" y="167" width="11" height="11" rx="2" fill="#0b1410" opacity="1.00"/>
<rect x="343" y="180" width="11" height="11" rx="2" fill="#0b1410" opacity="1.00"/>
<rect x="343" y="193" width="11" height="11" rx="2" fill="#0b1410" opacity="1.00"/>
<rect x="343" y="206" width="11" height="11" rx="2" fill="#4af08b" opacity="0.28"/>
<rect x="356" y="128" width="11" height="11" rx="2" fill="#0b1410" opacity="1.00"/>
<rect x="356" y="141" width="11" height="11" rx="2" fill="#4af08b" opacity="0.50"/>
<rect x="356" y="154" width="11" height="11" rx="2" fill="#0b1410" opacity="1.00"/>
<rect x="356" y="167" width="11" height="11" rx="2" fill="#0b1410" opacity="1.00"/>
<rect x="356" y="180" width="11" height="11" rx="2" fill="#0b1410" opacity="1.00"/>
<rect x="356" y="193" width="11" height="11" rx="2" fill="#0b1410" opacity="1.00"/>
<rect x="356" y="206" width="11" height="11" rx="2" fill="#0b1410" opacity="1.00"/>
<rect x="369" y="128" width="11" height="11" rx="2" fill="#4af08b" opacity="0.28"/>
<rect x="369" y="141" width="11" height="11" rx="2" fill="#0b1410" opacity="1.00"/>
<rect x="369" y="154" width="11" height="11" rx="2" fill="#0b1410" opacity="1.00"/>
<rect x="369" y="167" width="11" height="11" rx="2" fill="#0b1410" opacity="1.00"/>
<rect x="369" y="180" width="11" height="11" rx="2" fill="#0b1410" opacity="1.00"/>
<rect x="369" y="193" width="11" height="11" rx="2" fill="#0b1410" opacity="1.00"/>
<rect x="369" y="206" width="11" height="11" rx="2" fill="#0b1410" opacity="1.00"/>
<rect x="382" y="128" width="11" height="11" rx="2" fill="#0b1410" opacity="1.00"/>
<rect x="382" y="141" width="11" height="11" rx="2" fill="#4af08b" opacity="0.28"/>
<rect x="382" y="154" width="11" height="11" rx="2" fill="#0b1410" opacity="1.00"/>
<rect x="382" y="167" width="11" height="11" rx="2" fill="#4af08b" opacity="0.50"/>
<rect x="382" y="180" width="11" height="11" rx="2" fill="#0b1410" opacity="1.00"/>
<rect x="382" y="193" width="11" height="11" rx="2" fill="#4af08b" opacity="0.28"/>
<rect x="382" y="206" width="11" height="11" rx="2" fill="#0b1410" opacity="1.00"/>
<rect x="395" y="128" width="11" height="11" rx="2" fill="#0b1410" opacity="1.00"/>
<rect x="395" y="141" width="11" height="11" rx="2" fill="#4af08b" opacity="0.50"/>
<rect x="395" y="154" width="11" height="11" rx="2" fill="#0b1410" opacity="1.00"/>
<rect x="395" y="167" width="11" height="11" rx="2" fill="#0b1410" opacity="1.00"/>
<rect x="395" y="180" width="11" height="11" rx="2" fill="#0b1410" opacity="1.00"/>
<rect x="395" y="193" width="11" height="11" rx="2" fill="#0b1410" opacity="1.00"/>
<rect x="395" y="206" width="11" height="11" rx="2" fill="#0b1410" opacity="1.00"/>
<rect x="408" y="128" width="11" height="11" rx="2" fill="#0b1410" opacity="1.00"/>
<rect x="408" y="141" width="11" height="11" rx="2" fill="#0b1410" opacity="1.00"/>
<rect x="408" y="154" width="11" height="11" rx="2" fill="#0b1410" opacity="1.00"/>
<rect x="408" y="167" width="11" height="11" rx="2" fill="#0b1410" opacity="1.00"/>
<rect x="408" y="180" width="11" height="11" rx="2" fill="#0b1410" opacity="1.00"/>
<rect x="408" y="193" width="11" height="11" rx="2" fill="#0b1410" opacity="1.00"/>
<rect x="408" y="206" width="11" height="11" rx="2" fill="#0b1410" opacity="1.00"/>
<rect x="421" y="128" width="11" height="11" rx="2" fill="#0b1410" opacity="1.00"/>
<rect x="421" y="141" width="11" height="11" rx="2" fill="#0b1410" opacity="1.00"/>
<rect x="421" y="154" width="11" height="11" rx="2" fill="#0b1410" opacity="1.00"/>
<rect x="421" y="167" width="11" height="11" rx="2" fill="#4af08b" opacity="0.50"/>
<rect x="421" y="180" width="11" height="11" rx="2" fill="#4af08b" opacity="0.28"/>
<rect x="421" y="193" width="11" height="11" rx="2" fill="#0b1410" opacity="1.00"/>
<rect x="421" y="206" width="11" height="11" rx="2" fill="#4af08b" opacity="0.50"/>
<rect x="434" y="128" width="11" height="11" rx="2" fill="#0b1410" opacity="1.00"/>
<rect x="434" y="141" width="11" height="11" rx="2" fill="#4af08b" opacity="0.28"/>
<rect x="434" y="154" width="11" height="11" rx="2" fill="#0b1410" opacity="1.00"/>
<rect x="434" y="167" width="11" height="11" rx="2" fill="#0b1410" opacity="1.00"/>
<rect x="434" y="180" width="11" height="11" rx="2" fill="#4af08b" opacity="0.50"/>
<rect x="434" y="193" width="11" height="11" rx="2" fill="#4af08b" opacity="0.50"/>
<rect x="434" y="206" width="11" height="11" rx="2" fill="#4af08b" opacity="0.28"/>
<rect x="447" y="128" width="11" height="11" rx="2" fill="#4af08b" opacity="0.28"/>
<rect x="447" y="141" width="11" height="11" rx="2" fill="#0b1410" opacity="1.00"/>
<rect x="447" y="154" width="11" height="11" rx="2" fill="#0b1410" opacity="1.00"/>
<rect x="447" y="167" width="11" height="11" rx="2" fill="#0b1410" opacity="1.00"/>
<rect x="447" y="180" width="11" height="11" rx="2" fill="#0b1410" opacity="1.00"/>
<rect x="447" y="193" width="11" height="11" rx="2" fill="#0b1410" opacity="1.00"/>
<rect x="447" y="206" width="11" height="11" rx="2" fill="#4af08b" opacity="0.50"/>
<rect x="460" y="128" width="11" height="11" rx="2" fill="#0b1410" opacity="1.00"/>
<rect x="460" y="141" width="11" height="11" rx="2" fill="#0b1410" opacity="1.00"/>
<rect x="460" y="154" width="11" height="11" rx="2" fill="#0b1410" opacity="1.00"/>
<rect x="460" y="167" width="11" height="11" rx="2" fill="#4af08b" opacity="0.28"/>
<rect x="460" y="180" width="11" height="11" rx="2" fill="#0b1410" opacity="1.00"/>
<rect x="460" y="193" width="11" height="11" rx="2" fill="#0b1410" opacity="1.00"/>
<rect x="460" y="206" width="11" height="11" rx="2" fill="#4af08b" opacity="0.28"/>
<rect x="473" y="128" width="11" height="11" rx="2" fill="#0b1410" opacity="1.00"/>
<rect x="473" y="141" width="11" height="11" rx="2" fill="#4af08b" opacity="0.72"/>
<rect x="473" y="154" width="11" height="11" rx="2" fill="#4af08b" opacity="0.50"/>
<rect x="473" y="167" width="11" height="11" rx="2" fill="#4af08b" opacity="0.50"/>
<rect x="473" y="180" width="11" height="11" rx="2" fill="#4af08b" opacity="0.50"/>
<rect x="473" y="193" width="11" height="11" rx="2" fill="#0b1410" opacity="1.00"/>
<rect x="473" y="206" width="11" height="11" rx="2" fill="#0b1410" opacity="1.00"/>
<rect x="486" y="128" width="11" height="11" rx="2" fill="#0b1410" opacity="1.00"/>
<rect x="486" y="141" width="11" height="11" rx="2" fill="#0b1410" opacity="1.00"/>
<rect x="486" y="154" width="11" height="11" rx="2" fill="#0b1410" opacity="1.00"/>
<rect x="486" y="167" width="11" height="11" rx="2" fill="#0b1410" opacity="1.00"/>
<rect x="486" y="180" width="11" height="11" rx="2" fill="#0b1410" opacity="1.00"/>
<rect x="486" y="193" width="11" height="11" rx="2" fill="#0b1410" opacity="1.00"/>
<rect x="486" y="206" width="11" height="11" rx="2" fill="#0b1410" opacity="1.00"/>
<rect x="499" y="128" width="11" height="11" rx="2" fill="#0b1410" opacity="1.00"/>
<rect x="499" y="141" width="11" height="11" rx="2" fill="#4af08b" opacity="0.28"/>
<rect x="499" y="154" width="11" height="11" rx="2" fill="#0b1410" opacity="1.00"/>
<rect x="499" y="167" width="11" height="11" rx="2" fill="#0b1410" opacity="1.00"/>
<rect x="499" y="180" width="11" height="11" rx="2" fill="#4af08b" opacity="0.50"/>
<rect x="499" y="193" width="11" height="11" rx="2" fill="#4af08b" opacity="0.28"/>
<rect x="499" y="206" width="11" height="11" rx="2" fill="#0b1410" opacity="1.00"/>
<rect x="512" y="128" width="11" height="11" rx="2" fill="#0b1410" opacity="1.00"/>
<rect x="512" y="141" width="11" height="11" rx="2" fill="#0b1410" opacity="1.00"/>
<rect x="512" y="154" width="11" height="11" rx="2" fill="#0b1410" opacity="1.00"/>
<rect x="512" y="167" width="11" height="11" rx="2" fill="#4af08b" opacity="0.50"/>
<rect x="512" y="180" width="11" height="11" rx="2" fill="#4af08b" opacity="0.50"/>
<rect x="512" y="193" width="11" height="11" rx="2" fill="#4af08b" opacity="0.28"/>
<rect x="512" y="206" width="11" height="11" rx="2" fill="#0b1410" opacity="1.00"/>
<rect x="525" y="128" width="11" height="11" rx="2" fill="#0b1410" opacity="1.00"/>
<rect x="525" y="141" width="11" height="11" rx="2" fill="#4af08b" opacity="0.50"/>
<rect x="525" y="154" width="11" height="11" rx="2" fill="#0b1410" opacity="1.00"/>
<rect x="525" y="167" width="11" height="11" rx="2" fill="#4af08b" opacity="0.50"/>
<rect x="525" y="180" width="11" height="11" rx="2" fill="#4af08b" opacity="0.28"/>
<rect x="525" y="193" width="11" height="11" rx="2" fill="#0b1410" opacity="1.00"/>
<rect x="525" y="206" width="11" height="11" rx="2" fill="#0b1410" opacity="1.00"/>
<rect x="538" y="128" width="11" height="11" rx="2" fill="#0b1410" opacity="1.00"/>
<rect x="538" y="141" width="11" height="11" rx="2" fill="#0b1410" opacity="1.00"/>
<rect x="538" y="154" width="11" height="11" rx="2" fill="#0b1410" opacity="1.00"/>
<rect x="538" y="167" width="11" height="11" rx="2" fill="#0b1410" opacity="1.00"/>
<rect x="538" y="180" width="11" height="11" rx="2" fill="#0b1410" opacity="1.00"/>
<rect x="538" y="193" width="11" height="11" rx="2" fill="#0b1410" opacity="1.00"/>
<rect x="538" y="206" width="11" height="11" rx="2" fill="#4af08b" opacity="0.28"/>
<rect x="551" y="128" width="11" height="11" rx="2" fill="#0b1410" opacity="1.00"/>
<rect x="551" y="141" width="11" height="11" rx="2" fill="#4af08b" opacity="0.28"/>
<rect x="551" y="154" width="11" height="11" rx="2" fill="#0b1410" opacity="1.00"/>
<rect x="551" y="167" width="11" height="11" rx="2" fill="#4af08b" opacity="0.28"/>
<rect x="551" y="180" width="11" height="11" rx="2" fill="#0b1410" opacity="1.00"/>
<rect x="551" y="193" width="11" height="11" rx="2" fill="#0b1410" opacity="1.00"/>
<rect x="551" y="206" width="11" height="11" rx="2" fill="#0b1410" opacity="1.00"/>
<rect x="564" y="128" width="11" height="11" rx="2" fill="#4af08b" opacity="0.50"/>
<rect x="564" y="141" width="11" height="11" rx="2" fill="#0b1410" opacity="1.00"/>
<rect x="564" y="154" width="11" height="11" rx="2" fill="#0b1410" opacity="1.00"/>
<rect x="564" y="167" width="11" height="11" rx="2" fill="#0b1410" opacity="1.00"/>
<rect x="564" y="180" width="11" height="11" rx="2" fill="#0b1410" opacity="1.00"/>
<rect x="564" y="193" width="11" height="11" rx="2" fill="#0b1410" opacity="1.00"/>
<rect x="564" y="206" width="11" height="11" rx="2" fill="#0b1410" opacity="1.00"/>
<rect x="577" y="128" width="11" height="11" rx="2" fill="#0b1410" opacity="1.00"/>
<rect x="577" y="141" width="11" height="11" rx="2" fill="#0b1410" opacity="1.00"/>
<rect x="577" y="154" width="11" height="11" rx="2" fill="#4af08b" opacity="0.50"/>
<rect x="577" y="167" width="11" height="11" rx="2" fill="#0b1410" opacity="1.00"/>
<rect x="577" y="180" width="11" height="11" rx="2" fill="#0b1410" opacity="1.00"/>
<rect x="577" y="193" width="11" height="11" rx="2" fill="#0b1410" opacity="1.00"/>
<rect x="577" y="206" width="11" height="11" rx="2" fill="#0b1410" opacity="1.00"/>
<rect x="590" y="128" width="11" height="11" rx="2" fill="#4af08b" opacity="0.28"/>
<rect x="590" y="141" width="11" height="11" rx="2" fill="#0b1410" opacity="1.00"/>
<rect x="590" y="154" width="11" height="11" rx="2" fill="#0b1410" opacity="1.00"/>
<rect x="590" y="167" width="11" height="11" rx="2" fill="#4af08b" opacity="0.50"/>
<rect x="590" y="180" width="11" height="11" rx="2" fill="#0b1410" opacity="1.00"/>
<rect x="590" y="193" width="11" height="11" rx="2" fill="#4af08b" opacity="0.28"/>
<rect x="590" y="206" width="11" height="11" rx="2" fill="#0b1410" opacity="1.00"/>
<rect x="603" y="128" width="11" height="11" rx="2" fill="#4af08b" opacity="0.50"/>
<rect x="603" y="141" width="11" height="11" rx="2" fill="#4af08b" opacity="0.28"/>
<rect x="603" y="154" width="11" height="11" rx="2" fill="#4af08b" opacity="0.28"/>
<rect x="603" y="167" width="11" height="11" rx="2" fill="#0b1410" opacity="1.00"/>
<rect x="603" y="180" width="11" height="11" rx="2" fill="#4af08b" opacity="0.50"/>
<rect x="603" y="193" width="11" height="11" rx="2" fill="#0b1410" opacity="1.00"/>
<rect x="603" y="206" width="11" height="11" rx="2" fill="#4af08b" opacity="0.50"/>
<rect x="616" y="128" width="11" height="11" rx="2" fill="#0b1410" opacity="1.00"/>
<rect x="616" y="141" width="11" height="11" rx="2" fill="#0b1410" opacity="1.00"/>
<rect x="616" y="154" width="11" height="11" rx="2" fill="#4af08b" opacity="0.28"/>
<rect x="616" y="167" width="11" height="11" rx="2" fill="#0b1410" opacity="1.00"/>
<rect x="616" y="180" width="11" height="11" rx="2" fill="#0b1410" opacity="1.00"/>
<rect x="616" y="193" width="11" height="11" rx="2" fill="#0b1410" opacity="1.00"/>
<rect x="616" y="206" width="11" height="11" rx="2" fill="#0b1410" opacity="1.00"/>
<rect x="629" y="128" width="11" height="11" rx="2" fill="#0b1410" opacity="1.00"/>
<rect x="629" y="141" width="11" height="11" rx="2" fill="#4af08b" opacity="0.50"/>
<rect x="629" y="154" width="11" height="11" rx="2" fill="#0b1410" opacity="1.00"/>
<rect x="629" y="167" width="11" height="11" rx="2" fill="#0b1410" opacity="1.00"/>
<rect x="629" y="180" width="11" height="11" rx="2" fill="#0b1410" opacity="1.00"/>
<rect x="629" y="193" width="11" height="11" rx="2" fill="#0b1410" opacity="1.00"/>
<rect x="629" y="206" width="11" height="11" rx="2" fill="#4af08b" opacity="1.00"/>
<rect x="642" y="128" width="11" height="11" rx="2" fill="#0b1410" opacity="1.00"/>
<rect x="642" y="141" width="11" height="11" rx="2" fill="#0b1410" opacity="1.00"/>
<rect x="642" y="154" width="11" height="11" rx="2" fill="#4af08b" opacity="0.28"/>
<rect x="642" y="167" width="11" height="11" rx="2" fill="#4af08b" opacity="0.72"/>
<rect x="642" y="180" width="11" height="11" rx="2" fill="#4af08b" opacity="0.28"/>
<rect x="642" y="193" width="11" height="11" rx="2" fill="#4af08b" opacity="0.50"/>
<rect x="642" y="206" width="11" height="11" rx="2" fill="#0b1410" opacity="1.00"/>
<rect x="655" y="128" width="11" height="11" rx="2" fill="#0b1410" opacity="1.00"/>
<rect x="655" y="141" width="11" height="11" rx="2" fill="#0b1410" opacity="1.00"/>
<rect x="655" y="154" width="11" height="11" rx="2" fill="#0b1410" opacity="1.00"/>
<rect x="655" y="167" width="11" height="11" rx="2" fill="#0b1410" opacity="1.00"/>
<rect x="655" y="180" width="11" height="11" rx="2" fill="#0b1410" opacity="1.00"/>
<rect x="655" y="193" width="11" height="11" rx="2" fill="#4af08b" opacity="0.28"/>
<rect x="655" y="206" width="11" height="11" rx="2" fill="#0b1410" opacity="1.00"/>
<rect x="668" y="128" width="11" height="11" rx="2" fill="#0b1410" opacity="1.00"/>
<rect x="668" y="141" width="11" height="11" rx="2" fill="#4af08b" opacity="0.50"/>
<rect x="668" y="154" width="11" height="11" rx="2" fill="#0b1410" opacity="1.00"/>
<rect x="668" y="167" width="11" height="11" rx="2" fill="#0b1410" opacity="1.00"/>
<rect x="668" y="180" width="11" height="11" rx="2" fill="#4af08b" opacity="0.50"/>
<rect x="668" y="193" width="11" height="11" rx="2" fill="#0b1410" opacity="1.00"/>
<rect x="668" y="206" width="11" height="11" rx="2" fill="#0b1410" opacity="1.00"/>
<rect x="681" y="128" width="11" height="11" rx="2" fill="#0b1410" opacity="1.00"/>
<rect x="681" y="141" width="11" height="11" rx="2" fill="#0b1410" opacity="1.00"/>
<rect x="681" y="154" width="11" height="11" rx="2" fill="#4af08b" opacity="0.50"/>
<rect x="681" y="167" width="11" height="11" rx="2" fill="#0b1410" opacity="1.00"/>
<rect x="681" y="180" width="11" height="11" rx="2" fill="#4af08b" opacity="0.28"/>
<rect x="681" y="193" width="11" height="11" rx="2" fill="#0b1410" opacity="1.00"/>
<rect x="681" y="206" width="11" height="11" rx="2" fill="#4af08b" opacity="0.50"/>
<rect x="694" y="128" width="11" height="11" rx="2" fill="#0b1410" opacity="1.00"/>
<rect x="694" y="141" width="11" height="11" rx="2" fill="#0b1410" opacity="1.00"/>
<rect x="694" y="154" width="11" height="11" rx="2" fill="#0b1410" opacity="1.00"/>
<rect x="694" y="167" width="11" height="11" rx="2" fill="#0b1410" opacity="1.00"/>
<rect x="694" y="180" width="11" height="11" rx="2" fill="#4af08b" opacity="0.28"/>
<rect x="694" y="193" width="11" height="11" rx="2" fill="#0b1410" opacity="1.00"/>
<rect x="694" y="206" width="11" height="11" rx="2" fill="#0b1410" opacity="1.00"/>
<rect x="707" y="128" width="11" height="11" rx="2" fill="#4af08b" opacity="0.28"/>
<rect x="707" y="141" width="11" height="11" rx="2" fill="#4af08b" opacity="0.50"/>
<rect x="707" y="154" width="11" height="11" rx="2" fill="#0b1410" opacity="1.00"/>
<rect x="707" y="167" width="11" height="11" rx="2" fill="#4af08b" opacity="0.28"/>
<rect x="707" y="180" width="11" height="11" rx="2" fill="#4af08b" opacity="0.28"/>
<rect x="707" y="193" width="11" height="11" rx="2" fill="#0b1410" opacity="1.00"/>
<rect x="707" y="206" width="11" height="11" rx="2" fill="#0b1410" opacity="1.00"/>
<rect x="720" y="128" width="11" height="11" rx="2" fill="#0b1410" opacity="1.00"/>
<rect x="720" y="141" width="11" height="11" rx="2" fill="#0b1410" opacity="1.00"/>
<rect x="720" y="154" width="11" height="11" rx="2" fill="#4af08b" opacity="0.28"/>
<rect x="720" y="167" width="11" height="11" rx="2" fill="#0b1410" opacity="1.00"/>
<rect x="720" y="180" width="11" height="11" rx="2" fill="#4af08b" opacity="0.28"/>
<rect x="720" y="193" width="11" height="11" rx="2" fill="#0b1410" opacity="1.00"/>
<rect x="720" y="206" width="11" height="11" rx="2" fill="#0b1410" opacity="1.00"/>
<rect x="733" y="128" width="11" height="11" rx="2" fill="#0b1410" opacity="1.00"/>
<rect x="733" y="141" width="11" height="11" rx="2" fill="#0b1410" opacity="1.00"/>
<rect x="733" y="154" width="11" height="11" rx="2" fill="#0b1410" opacity="1.00"/>
<text x="44" y="300" font-size="30" font-weight="800" fill="#4af08b">108</text>
<text x="44" y="320" font-size="12" font-weight="400" fill="#5d8a6e">sessions</text>
<text x="196" y="300" font-size="30" font-weight="700" fill="#d7f5e2">1,760</text>
<text x="196" y="320" font-size="12" font-weight="400" fill="#5d8a6e">messages</text>
<text x="348" y="300" font-size="30" font-weight="700" fill="#d7f5e2">2</text>
<text x="348" y="320" font-size="12" font-weight="400" fill="#5d8a6e">agents</text>
<text x="470" y="276" font-size="11" font-weight="700" fill="#5d8a6e" letter-spacing="1.5">TOP AGENTS</text>
<text x="470" y="299" font-size="10" font-weight="400" fill="#a9cbb6">claude</text>
<rect x="570" y="291" width="90" height="8" rx="4" fill="#4af08b"/>
<text x="672" y="299" font-size="10" font-weight="700" fill="#a9cbb6">70</text>
<text x="470" y="312" font-size="10" font-weight="400" fill="#a9cbb6">codex</text>
<rect x="570" y="304" width="48" height="8" rx="4" fill="#4af08b"/>
<text x="672" y="312" font-size="10" font-weight="700" fill="#a9cbb6">38</text>
<text x="40" y="402" font-size="11" font-weight="400" fill="#5d8a6e">$ deja stats --card · vdev</text>
<text x="760" y="402" font-size="12" font-weight="700" fill="#4af08b" text-anchor="end">vshulcz.github.io/deja-vu</text>
</g>
<rect width="800" height="420" fill="url(#scan)"/>
</svg>
