<?xml version="1.0" encoding="UTF-8"?>
<svg xmlns="http://www.w3.org/2000/svg" width="800" height="420" viewBox="0 0 800 420">
<rect width="800" height="420" rx="20" fill="#0d0b16"/>
<rect x="0.5" y="0.5" width="799" height="419" rx="19.5" fill="none" stroke="#26233a"/>
<g font-family="ui-monospace, SFMono-Regular, Menlo, monospace" fill="#e6e6f0">
<circle cx="46" cy="43" r="6" fill="#7c6cf0"/>
<text x="62" y="48" font-size="15" font-weight="700" fill="#4ecdc4" letter-spacing="0.5">deja · agent history</text>
<text x="760" y="48" font-size="13" font-weight="400" fill="#78788c" text-anchor="end">2025-08-25 – 2026-08-16</text>
<text x="40" y="90" font-size="21" font-weight="800" fill="#ffffff">You asked the same thing 91 times — deja remembered.</text>
<text x="44" y="122" font-size="10" font-weight="400" fill="#78788c">Jul</text>
<text x="83" y="122" font-size="10" font-weight="400" fill="#78788c">Aug</text>
<text x="148" y="122" font-size="10" font-weight="400" fill="#78788c">Sep</text>
<text x="200" y="122" font-size="10" font-weight="400" fill="#78788c">Oct</text>
<text x="252" y="122" font-size="10" font-weight="400" fill="#78788c">Nov</text>
<text x="317" y="122" font-size="10" font-weight="400" fill="#78788c">Dec</text>
<text x="369" y="122" font-size="10" font-weight="400" fill="#78788c">Jan</text>
<text x="421" y="122" font-size="10" font-weight="400" fill="#78788c">Feb</text>
<text x="473" y="122" font-size="10" font-weight="400" fill="#78788c">Mar</text>
<text x="538" y="122" font-size="10" font-weight="400" fill="#78788c">Apr</text>
<text x="590" y="122" font-size="10" font-weight="400" fill="#78788c">May</text>
<text x="655" y="122" font-size="10" font-weight="400" fill="#78788c">Jun</text>
<text x="707" y="122" font-size="10" font-weight="400" fill="#78788c">Jul</text>
<rect x="44" y="128" width="11" height="11" rx="2" fill="#1b1926" opacity="1.00"/>
<rect x="44" y="141" width="11" height="11" rx="2" fill="#1b1926" opacity="1.00"/>
<rect x="44" y="154" width="11" height="11" rx="2" fill="#1b1926" opacity="1.00"/>
<rect x="44" y="167" width="11" height="11" rx="2" fill="#1b1926" opacity="1.00"/>
<rect x="44" y="180" width="11" height="11" rx="2" fill="#1b1926" opacity="1.00"/>
<rect x="44" y="193" width="11" height="11" rx="2" fill="#1b1926" opacity="1.00"/>
<rect x="44" y="206" width="11" height="11" rx="2" fill="#1b1926" opacity="1.00"/>
<rect x="57" y="128" width="11" height="11" rx="2" fill="#1b1926" opacity="1.00"/>
<rect x="57" y="141" width="11" height="11" rx="2" fill="#1b1926" opacity="1.00"/>
<rect x="57" y="154" width="11" height="11" rx="2" fill="#1b1926" opacity="1.00"/>
<rect x="57" y="167" width="11" height="11" rx="2" fill="#1b1926" opacity="1.00"/>
<rect x="57" y="180" width="11" height="11" rx="2" fill="#1b1926" opacity="1.00"/>
<rect x="57" y="193" width="11" height="11" rx="2" fill="#1b1926" opacity="1.00"/>
<rect x="57" y="206" width="11" height="11" rx="2" fill="#1b1926" opacity="1.00"/>
<rect x="70" y="128" width="11" height="11" rx="2" fill="#1b1926" opacity="1.00"/>
<rect x="70" y="141" width="11" height="11" rx="2" fill="#1b1926" opacity="1.00"/>
<rect x="70" y="154" width="11" height="11" rx="2" fill="#1b1926" opacity="1.00"/>
<rect x="70" y="167" width="11" height="11" rx="2" fill="#1b1926" opacity="1.00"/>
<rect x="70" y="180" width="11" height="11" rx="2" fill="#1b1926" opacity="1.00"/>
<rect x="70" y="193" width="11" height="11" rx="2" fill="#1b1926" opacity="1.00"/>
<rect x="70" y="206" width="11" height="11" rx="2" fill="#1b1926" opacity="1.00"/>
<rect x="83" y="128" width="11" height="11" rx="2" fill="#1b1926" opacity="1.00"/>
<rect x="83" y="141" width="11" height="11" rx="2" fill="#1b1926" opacity="1.00"/>
<rect x="83" y="154" width="11" height="11" rx="2" fill="#1b1926" opacity="1.00"/>
<rect x="83" y="167" width="11" height="11" rx="2" fill="#1b1926" opacity="1.00"/>
<rect x="83" y="180" width="11" height="11" rx="2" fill="#1b1926" opacity="1.00"/>
<rect x="83" y="193" width="11" height="11" rx="2" fill="#1b1926" opacity="1.00"/>
<rect x="83" y="206" width="11" height="11" rx="2" fill="#1b1926" opacity="1.00"/>
<rect x="96" y="128" width="11" height="11" rx="2" fill="#1b1926" opacity="1.00"/>
<rect x="96" y="141" width="11" height="11" rx="2" fill="#1b1926" opacity="1.00"/>
<rect x="96" y="154" width="11" height="11" rx="2" fill="#1b1926" opacity="1.00"/>
<rect x="96" y="167" width="11" height="11" rx="2" fill="#1b1926" opacity="1.00"/>
<rect x="96" y="180" width="11" height="11" rx="2" fill="#1b1926" opacity="1.00"/>
<rect x="96" y="193" width="11" height="11" rx="2" fill="#1b1926" opacity="1.00"/>
<rect x="96" y="206" width="11" height="11" rx="2" fill="#1b1926" opacity="1.00"/>
<rect x="109" y="128" width="11" height="11" rx="2" fill="#1b1926" opacity="1.00"/>
<rect x="109" y="141" width="11" height="11" rx="2" fill="#1b1926" opacity="1.00"/>
<rect x="109" y="154" width="11" height="11" rx="2" fill="#1b1926" opacity="1.00"/>
<rect x="109" y="167" width="11" height="11" rx="2" fill="#1b1926" opacity="1.00"/>
<rect x="109" y="180" width="11" height="11" rx="2" fill="#1b1926" opacity="1.00"/>
<rect x="109" y="193" width="11" height="11" rx="2" fill="#1b1926" opacity="1.00"/>
<rect x="109" y="206" width="11" height="11" rx="2" fill="#1b1926" opacity="1.00"/>
<rect x="122" y="128" width="11" height="11" rx="2" fill="#1b1926" opacity="1.00"/>
<rect x="122" y="141" width="11" height="11" rx="2" fill="#4ecdc4" opacity="0.50"/>
<rect x="122" y="154" width="11" height="11" rx="2" fill="#1b1926" opacity="1.00"/>
<rect x="122" y="167" width="11" height="11" rx="2" fill="#1b1926" opacity="1.00"/>
<rect x="122" y="180" width="11" height="11" rx="2" fill="#1b1926" opacity="1.00"/>
<rect x="122" y="193" width="11" height="11" rx="2" fill="#1b1926" opacity="1.00"/>
<rect x="122" y="206" width="11" height="11" rx="2" fill="#1b1926" opacity="1.00"/>
<rect x="135" y="128" width="11" height="11" rx="2" fill="#1b1926" opacity="1.00"/>
<rect x="135" y="141" width="11" height="11" rx="2" fill="#1b1926" opacity="1.00"/>
<rect x="135" y="154" width="11" height="11" rx="2" fill="#1b1926" opacity="1.00"/>
<rect x="135" y="167" width="11" height="11" rx="2" fill="#1b1926" opacity="1.00"/>
<rect x="135" y="180" width="11" height="11" rx="2" fill="#1b1926" opacity="1.00"/>
<rect x="135" y="193" width="11" height="11" rx="2" fill="#1b1926" opacity="1.00"/>
<rect x="135" y="206" width="11" height="11" rx="2" fill="#4ecdc4" opacity="0.28"/>
<rect x="148" y="128" width="11" height="11" rx="2" fill="#1b1926" opacity="1.00"/>
<rect x="148" y="141" width="11" height="11" rx="2" fill="#4ecdc4" opacity="0.50"/>
<rect x="148" y="154" width="11" height="11" rx="2" fill="#1b1926" opacity="1.00"/>
<rect x="148" y="167" width="11" height="11" rx="2" fill="#4ecdc4" opacity="0.28"/>
<rect x="148" y="180" width="11" height="11" rx="2" fill="#4ecdc4" opacity="0.50"/>
<rect x="148" y="193" width="11" height="11" rx="2" fill="#1b1926" opacity="1.00"/>
<rect x="148" y="206" width="11" height="11" rx="2" fill="#1b1926" opacity="1.00"/>
<rect x="161" y="128" width="11" height="11" rx="2" fill="#1b1926" opacity="1.00"/>
<rect x="161" y="141" width="11" height="11" rx="2" fill="#1b1926" opacity="1.00"/>
<rect x="161" y="154" width="11" height="11" rx="2" fill="#1b1926" opacity="1.00"/>
<rect x="161" y="167" width="11" height="11" rx="2" fill="#4ecdc4" opacity="0.72"/>
<rect x="161" y="180" width="11" height="11" rx="2" fill="#1b1926" opacity="1.00"/>
<rect x="161" y="193" width="11" height="11" rx="2" fill="#1b1926" opacity="1.00"/>
<rect x="161" y="206" width="11" height="11" rx="2" fill="#1b1926" opacity="1.00"/>
<rect x="174" y="128" width="11" height="11" rx="2" fill="#1b1926" opacity="1.00"/>
<rect x="174" y="141" width="11" height="11" rx="2" fill="#1b1926" opacity="1.00"/>
<rect x="174" y="154" width="11" height="11" rx="2" fill="#1b1926" opacity="1.00"/>
<rect x="174" y="167" width="11" height="11" rx="2" fill="#1b1926" opacity="1.00"/>
<rect x="174" y="180" width="11" height="11" rx="2" fill="#4ecdc4" opacity="0.28"/>
<rect x="174" y="193" width="11" height="11" rx="2" fill="#1b1926" opacity="1.00"/>
<rect x="174" y="206" width="11" height="11" rx="2" fill="#1b1926" opacity="1.00"/>
<rect x="187" y="128" width="11" height="11" rx="2" fill="#4ecdc4" opacity="0.72"/>
<rect x="187" y="141" width="11" height="11" rx="2" fill="#1b1926" opacity="1.00"/>
<rect x="187" y="154" width="11" height="11" rx="2" fill="#1b1926" opacity="1.00"/>
<rect x="187" y="167" width="11" height="11" rx="2" fill="#1b1926" opacity="1.00"/>
<rect x="187" y="180" width="11" height="11" rx="2" fill="#1b1926" opacity="1.00"/>
<rect x="187" y="193" width="11" height="11" rx="2" fill="#1b1926" opacity="1.00"/>
<rect x="187" y="206" width="11" height="11" rx="2" fill="#1b1926" opacity="1.00"/>
<rect x="200" y="128" width="11" height="11" rx="2" fill="#1b1926" opacity="1.00"/>
<rect x="200" y="141" width="11" height="11" rx="2" fill="#1b1926" opacity="1.00"/>
<rect x="200" y="154" width="11" height="11" rx="2" fill="#4ecdc4" opacity="0.50"/>
<rect x="200" y="167" width="11" height="11" rx="2" fill="#4ecdc4" opacity="0.28"/>
<rect x="200" y="180" width="11" height="11" rx="2" fill="#1b1926" opacity="1.00"/>
<rect x="200" y="193" width="11" height="11" rx="2" fill="#1b1926" opacity="1.00"/>
<rect x="200" y="206" width="11" height="11" rx="2" fill="#1b1926" opacity="1.00"/>
<rect x="213" y="128" width="11" height="11" rx="2" fill="#1b1926" opacity="1.00"/>
<rect x="213" y="141" width="11" height="11" rx="2" fill="#1b1926" opacity="1.00"/>
<rect x="213" y="154" width="11" height="11" rx="2" fill="#1b1926" opacity="1.00"/>
<rect x="213" y="167" width="11" height="11" rx="2" fill="#1b1926" opacity="1.00"/>
<rect x="213" y="180" width="11" height="11" rx="2" fill="#1b1926" opacity="1.00"/>
<rect x="213" y="193" width="11" height="11" rx="2" fill="#1b1926" opacity="1.00"/>
<rect x="213" y="206" width="11" height="11" rx="2" fill="#1b1926" opacity="1.00"/>
<rect x="226" y="128" width="11" height="11" rx="2" fill="#1b1926" opacity="1.00"/>
<rect x="226" y="141" width="11" height="11" rx="2" fill="#1b1926" opacity="1.00"/>
<rect x="226" y="154" width="11" height="11" rx="2" fill="#1b1926" opacity="1.00"/>
<rect x="226" y="167" width="11" height="11" rx="2" fill="#1b1926" opacity="1.00"/>
<rect x="226" y="180" width="11" height="11" rx="2" fill="#1b1926" opacity="1.00"/>
<rect x="226" y="193" width="11" height="11" rx="2" fill="#1b1926" opacity="1.00"/>
<rect x="226" y="206" width="11" height="11" rx="2" fill="#4ecdc4" opacity="0.72"/>
<rect x="239" y="128" width="11" height="11" rx="2" fill="#1b1926" opacity="1.00"/>
<rect x="239" y="141" width="11" height="11" rx="2" fill="#1b1926" opacity="1.00"/>
<rect x="239" y="154" width="11" height="11" rx="2" fill="#1b1926" opacity="1.00"/>
<rect x="239" y="167" width="11" height="11" rx="2" fill="#1b1926" opacity="1.00"/>
<rect x="239" y="180" width="11" height="11" rx="2" fill="#4ecdc4" opacity="0.28"/>
<rect x="239" y="193" width="11" height="11" rx="2" fill="#1b1926" opacity="1.00"/>
<rect x="239" y="206" width="11" height="11" rx="2" fill="#1b1926" opacity="1.00"/>
<rect x="252" y="128" width="11" height="11" rx="2" fill="#1b1926" opacity="1.00"/>
<rect x="252" y="141" width="11" height="11" rx="2" fill="#1b1926" opacity="1.00"/>
<rect x="252" y="154" width="11" height="11" rx="2" fill="#1b1926" opacity="1.00"/>
<rect x="252" y="167" width="11" height="11" rx="2" fill="#1b1926" opacity="1.00"/>
<rect x="252" y="180" width="11" height="11" rx="2" fill="#1b1926" opacity="1.00"/>
<rect x="252" y="193" width="11" height="11" rx="2" fill="#4ecdc4" opacity="0.28"/>
<rect x="252" y="206" width="11" height="11" rx="2" fill="#1b1926" opacity="1.00"/>
<rect x="265" y="128" width="11" height="11" rx="2" fill="#1b1926" opacity="1.00"/>
<rect x="265" y="141" width="11" height="11" rx="2" fill="#4ecdc4" opacity="0.28"/>
<rect x="265" y="154" width="11" height="11" rx="2" fill="#1b1926" opacity="1.00"/>
<rect x="265" y="167" width="11" height="11" rx="2" fill="#1b1926" opacity="1.00"/>
<rect x="265" y="180" width="11" height="11" rx="2" fill="#1b1926" opacity="1.00"/>
<rect x="265" y="193" width="11" height="11" rx="2" fill="#1b1926" opacity="1.00"/>
<rect x="265" y="206" width="11" height="11" rx="2" fill="#4ecdc4" opacity="0.28"/>
<rect x="278" y="128" width="11" height="11" rx="2" fill="#1b1926" opacity="1.00"/>
<rect x="278" y="141" width="11" height="11" rx="2" fill="#1b1926" opacity="1.00"/>
<rect x="278" y="154" width="11" height="11" rx="2" fill="#1b1926" opacity="1.00"/>
<rect x="278" y="167" width="11" height="11" rx="2" fill="#1b1926" opacity="1.00"/>
<rect x="278" y="180" width="11" height="11" rx="2" fill="#1b1926" opacity="1.00"/>
<rect x="278" y="193" width="11" height="11" rx="2" fill="#1b1926" opacity="1.00"/>
<rect x="278" y="206" width="11" height="11" rx="2" fill="#1b1926" opacity="1.00"/>
<rect x="291" y="128" width="11" height="11" rx="2" fill="#1b1926" opacity="1.00"/>
<rect x="291" y="141" width="11" height="11" rx="2" fill="#1b1926" opacity="1.00"/>
<rect x="291" y="154" width="11" height="11" rx="2" fill="#1b1926" opacity="1.00"/>
<rect x="291" y="167" width="11" height="11" rx="2" fill="#1b1926" opacity="1.00"/>
<rect x="291" y="180" width="11" height="11" rx="2" fill="#4ecdc4" opacity="0.50"/>
<rect x="291" y="193" width="11" height="11" rx="2" fill="#4ecdc4" opacity="0.50"/>
<rect x="291" y="206" width="11" height="11" rx="2" fill="#4ecdc4" opacity="0.72"/>
<rect x="304" y="128" width="11" height="11" rx="2" fill="#1b1926" opacity="1.00"/>
<rect x="304" y="141" width="11" height="11" rx="2" fill="#1b1926" opacity="1.00"/>
<rect x="304" y="154" width="11" height="11" rx="2" fill="#1b1926" opacity="1.00"/>
<rect x="304" y="167" width="11" height="11" rx="2" fill="#1b1926" opacity="1.00"/>
<rect x="304" y="180" width="11" height="11" rx="2" fill="#1b1926" opacity="1.00"/>
<rect x="304" y="193" width="11" height="11" rx="2" fill="#1b1926" opacity="1.00"/>
<rect x="304" y="206" width="11" height="11" rx="2" fill="#1b1926" opacity="1.00"/>
<rect x="317" y="128" width="11" height="11" rx="2" fill="#1b1926" opacity="1.00"/>
<rect x="317" y="141" width="11" height="11" rx="2" fill="#1b1926" opacity="1.00"/>
<rect x="317" y="154" width="11" height="11" rx="2" fill="#4ecdc4" opacity="0.28"/>
<rect x="317" y="167" width="11" height="11" rx="2" fill="#1b1926" opacity="1.00"/>
<rect x="317" y="180" width="11" height="11" rx="2" fill="#4ecdc4" opacity="0.50"/>
<rect x="317" y="193" width="11" height="11" rx="2" fill="#1b1926" opacity="1.00"/>
<rect x="317" y="206" width="11" height="11" rx="2" fill="#1b1926" opacity="1.00"/>
<rect x="330" y="128" width="11" height="11" rx="2" fill="#1b1926" opacity="1.00"/>
<rect x="330" y="141" width="11" height="11" rx="2" fill="#4ecdc4" opacity="0.50"/>
<rect x="330" y="154" width="11" height="11" rx="2" fill="#1b1926" opacity="1.00"/>
<rect x="330" y="167" width="11" height="11" rx="2" fill="#1b1926" opacity="1.00"/>
<rect x="330" y="180" width="11" height="11" rx="2" fill="#1b1926" opacity="1.00"/>
<rect x="330" y="193" width="11" height="11" rx="2" fill="#1b1926" opacity="1.00"/>
<rect x="330" y="206" width="11" height="11" rx="2" fill="#1b1926" opacity="1.00"/>
<rect x="343" y="128" width="11" height="11" rx="2" fill="#1b1926" opacity="1.00"/>
<rect x="343" y="141" width="11" height="11" rx="2" fill="#1b1926" opacity="1.00"/>
<rect x="343" y="154" width="11" height="11" rx="2" fill="#1b1926" opacity="1.00"/>
<rect x="343" y="167" width="11" height="11" rx="2" fill="#1b1926" opacity="1.00"/>
<rect x="343" y="180" width="11" height="11" rx="2" fill="#1b1926" opacity="1.00"/>
<rect x="343" y="193" width="11" height="11" rx="2" fill="#1b1926" opacity="1.00"/>
<rect x="343" y="206" width="11" height="11" rx="2" fill="#4ecdc4" opacity="0.28"/>
<rect x="356" y="128" width="11" height="11" rx="2" fill="#1b1926" opacity="1.00"/>
<rect x="356" y="141" width="11" height="11" rx="2" fill="#1b1926" opacity="1.00"/>
<rect x="356" y="154" width="11" height="11" rx="2" fill="#1b1926" opacity="1.00"/>
<rect x="356" y="167" width="11" height="11" rx="2" fill="#4ecdc4" opacity="0.72"/>
<rect x="356" y="180" width="11" height="11" rx="2" fill="#1b1926" opacity="1.00"/>
<rect x="356" y="193" width="11" height="11" rx="2" fill="#1b1926" opacity="1.00"/>
<rect x="356" y="206" width="11" height="11" rx="2" fill="#1b1926" opacity="1.00"/>
<rect x="369" y="128" width="11" height="11" rx="2" fill="#1b1926" opacity="1.00"/>
<rect x="369" y="141" width="11" height="11" rx="2" fill="#1b1926" opacity="1.00"/>
<rect x="369" y="154" width="11" height="11" rx="2" fill="#4ecdc4" opacity="0.72"/>
<rect x="369" y="167" width="11" height="11" rx="2" fill="#1b1926" opacity="1.00"/>
<rect x="369" y="180" width="11" height="11" rx="2" fill="#1b1926" opacity="1.00"/>
<rect x="369" y="193" width="11" height="11" rx="2" fill="#1b1926" opacity="1.00"/>
<rect x="369" y="206" width="11" height="11" rx="2" fill="#4ecdc4" opacity="0.28"/>
<rect x="382" y="128" width="11" height="11" rx="2" fill="#4ecdc4" opacity="0.50"/>
<rect x="382" y="141" width="11" height="11" rx="2" fill="#1b1926" opacity="1.00"/>
<rect x="382" y="154" width="11" height="11" rx="2" fill="#1b1926" opacity="1.00"/>
<rect x="382" y="167" width="11" height="11" rx="2" fill="#4ecdc4" opacity="0.50"/>
<rect x="382" y="180" width="11" height="11" rx="2" fill="#1b1926" opacity="1.00"/>
<rect x="382" y="193" width="11" height="11" rx="2" fill="#1b1926" opacity="1.00"/>
<rect x="382" y="206" width="11" height="11" rx="2" fill="#4ecdc4" opacity="0.50"/>
<rect x="395" y="128" width="11" height="11" rx="2" fill="#4ecdc4" opacity="0.72"/>
<rect x="395" y="141" width="11" height="11" rx="2" fill="#1b1926" opacity="1.00"/>
<rect x="395" y="154" width="11" height="11" rx="2" fill="#1b1926" opacity="1.00"/>
<rect x="395" y="167" width="11" height="11" rx="2" fill="#1b1926" opacity="1.00"/>
<rect x="395" y="180" width="11" height="11" rx="2" fill="#1b1926" opacity="1.00"/>
<rect x="395" y="193" width="11" height="11" rx="2" fill="#1b1926" opacity="1.00"/>
<rect x="395" y="206" width="11" height="11" rx="2" fill="#1b1926" opacity="1.00"/>
<rect x="408" y="128" width="11" height="11" rx="2" fill="#4ecdc4" opacity="0.50"/>
<rect x="408" y="141" width="11" height="11" rx="2" fill="#1b1926" opacity="1.00"/>
<rect x="408" y="154" width="11" height="11" rx="2" fill="#1b1926" opacity="1.00"/>
<rect x="408" y="167" width="11" height="11" rx="2" fill="#1b1926" opacity="1.00"/>
<rect x="408" y="180" width="11" height="11" rx="2" fill="#4ecdc4" opacity="0.28"/>
<rect x="408" y="193" width="11" height="11" rx="2" fill="#1b1926" opacity="1.00"/>
<rect x="408" y="206" width="11" height="11" rx="2" fill="#1b1926" opacity="1.00"/>
<rect x="421" y="128" width="11" height="11" rx="2" fill="#1b1926" opacity="1.00"/>
<rect x="421" y="141" width="11" height="11" rx="2" fill="#1b1926" opacity="1.00"/>
<rect x="421" y="154" width="11" height="11" rx="2" fill="#1b1926" opacity="1.00"/>
<rect x="421" y="167" width="11" height="11" rx="2" fill="#1b1926" opacity="1.00"/>
<rect x="421" y="180" width="11" height="11" rx="2" fill="#1b1926" opacity="1.00"/>
<rect x="421" y="193" width="11" height="11" rx="2" fill="#4ecdc4" opacity="0.50"/>
<rect x="421" y="206" width="11" height="11" rx="2" fill="#4ecdc4" opacity="0.72"/>
<rect x="434" y="128" width="11" height="11" rx="2" fill="#4ecdc4" opacity="0.50"/>
<rect x="434" y="141" width="11" height="11" rx="2" fill="#4ecdc4" opacity="0.50"/>
<rect x="434" y="154" width="11" height="11" rx="2" fill="#1b1926" opacity="1.00"/>
<rect x="434" y="167" width="11" height="11" rx="2" fill="#1b1926" opacity="1.00"/>
<rect x="434" y="180" width="11" height="11" rx="2" fill="#1b1926" opacity="1.00"/>
<rect x="434" y="193" width="11" height="11" rx="2" fill="#1b1926" opacity="1.00"/>
<rect x="434" y="206" width="11" height="11" rx="2" fill="#1b1926" opacity="1.00"/>
<rect x="447" y="128" width="11" height="11" rx="2" fill="#1b1926" opacity="1.00"/>
<rect x="447" y="141" width="11" height="11" rx="2" fill="#1b1926" opacity="1.00"/>
<rect x="447" y="154" width="11" height="11" rx="2" fill="#1b1926" opacity="1.00"/>
<rect x="447" y="167" width="11" height="11" rx="2" fill="#1b1926" opacity="1.00"/>
<rect x="447" y="180" width="11" height="11" rx="2" fill="#1b1926" opacity="1.00"/>
<rect x="447" y="193" width="11" height="11" rx="2" fill="#1b1926" opacity="1.00"/>
<rect x="447" y="206" width="11" height="11" rx="2" fill="#1b1926" opacity="1.00"/>
<rect x="460" y="128" width="11" height="11" rx="2" fill="#4ecdc4" opacity="0.50"/>
<rect x="460" y="141" width="11" height="11" rx="2" fill="#1b1926" opacity="1.00"/>
<rect x="460" y="154" width="11" height="11" rx="2" fill="#1b1926" opacity="1.00"/>
<rect x="460" y="167" width="11" height="11" rx="2" fill="#4ecdc4" opacity="0.50"/>
<rect x="460" y="180" width="11" height="11" rx="2" fill="#1b1926" opacity="1.00"/>
<rect x="460" y="193" width="11" height="11" rx="2" fill="#1b1926" opacity="1.00"/>
<rect x="460" y="206" width="11" height="11" rx="2" fill="#4ecdc4" opacity="0.28"/>
<rect x="473" y="128" width="11" height="11" rx="2" fill="#1b1926" opacity="1.00"/>
<rect x="473" y="141" width="11" height="11" rx="2" fill="#1b1926" opacity="1.00"/>
<rect x="473" y="154" width="11" height="11" rx="2" fill="#1b1926" opacity="1.00"/>
<rect x="473" y="167" width="11" height="11" rx="2" fill="#1b1926" opacity="1.00"/>
<rect x="473" y="180" width="11" height="11" rx="2" fill="#4ecdc4" opacity="0.50"/>
<rect x="473" y="193" width="11" height="11" rx="2" fill="#4ecdc4" opacity="0.50"/>
<rect x="473" y="206" width="11" height="11" rx="2" fill="#4ecdc4" opacity="0.50"/>
<rect x="486" y="128" width="11" height="11" rx="2" fill="#4ecdc4" opacity="0.28"/>
<rect x="486" y="141" width="11" height="11" rx="2" fill="#1b1926" opacity="1.00"/>
<rect x="486" y="154" width="11" height="11" rx="2" fill="#1b1926" opacity="1.00"/>
<rect x="486" y="167" width="11" height="11" rx="2" fill="#1b1926" opacity="1.00"/>
<rect x="486" y="180" width="11" height="11" rx="2" fill="#1b1926" opacity="1.00"/>
<rect x="486" y="193" width="11" height="11" rx="2" fill="#4ecdc4" opacity="0.28"/>
<rect x="486" y="206" width="11" height="11" rx="2" fill="#1b1926" opacity="1.00"/>
<rect x="499" y="128" width="11" height="11" rx="2" fill="#1b1926" opacity="1.00"/>
<rect x="499" y="141" width="11" height="11" rx="2" fill="#1b1926" opacity="1.00"/>
<rect x="499" y="154" width="11" height="11" rx="2" fill="#1b1926" opacity="1.00"/>
<rect x="499" y="167" width="11" height="11" rx="2" fill="#4ecdc4" opacity="0.50"/>
<rect x="499" y="180" width="11" height="11" rx="2" fill="#4ecdc4" opacity="0.50"/>
<rect x="499" y="193" width="11" height="11" rx="2" fill="#1b1926" opacity="1.00"/>
<rect x="499" y="206" width="11" height="11" rx="2" fill="#1b1926" opacity="1.00"/>
<rect x="512" y="128" width="11" height="11" rx="2" fill="#1b1926" opacity="1.00"/>
<rect x="512" y="141" width="11" height="11" rx="2" fill="#1b1926" opacity="1.00"/>
<rect x="512" y="154" width="11" height="11" rx="2" fill="#1b1926" opacity="1.00"/>
<rect x="512" y="167" width="11" height="11" rx="2" fill="#1b1926" opacity="1.00"/>
<rect x="512" y="180" width="11" height="11" rx="2" fill="#1b1926" opacity="1.00"/>
<rect x="512" y="193" width="11" height="11" rx="2" fill="#1b1926" opacity="1.00"/>
<rect x="512" y="206" width="11" height="11" rx="2" fill="#1b1926" opacity="1.00"/>
<rect x="525" y="128" width="11" height="11" rx="2" fill="#1b1926" opacity="1.00"/>
<rect x="525" y="141" width="11" height="11" rx="2" fill="#4ecdc4" opacity="0.28"/>
<rect x="525" y="154" width="11" height="11" rx="2" fill="#1b1926" opacity="1.00"/>
<rect x="525" y="167" width="11" height="11" rx="2" fill="#4ecdc4" opacity="0.50"/>
<rect x="525" y="180" width="11" height="11" rx="2" fill="#4ecdc4" opacity="0.50"/>
<rect x="525" y="193" width="11" height="11" rx="2" fill="#4ecdc4" opacity="0.72"/>
<rect x="525" y="206" width="11" height="11" rx="2" fill="#1b1926" opacity="1.00"/>
<rect x="538" y="128" width="11" height="11" rx="2" fill="#1b1926" opacity="1.00"/>
<rect x="538" y="141" width="11" height="11" rx="2" fill="#1b1926" opacity="1.00"/>
<rect x="538" y="154" width="11" height="11" rx="2" fill="#1b1926" opacity="1.00"/>
<rect x="538" y="167" width="11" height="11" rx="2" fill="#1b1926" opacity="1.00"/>
<rect x="538" y="180" width="11" height="11" rx="2" fill="#4ecdc4" opacity="0.50"/>
<rect x="538" y="193" width="11" height="11" rx="2" fill="#1b1926" opacity="1.00"/>
<rect x="538" y="206" width="11" height="11" rx="2" fill="#1b1926" opacity="1.00"/>
<rect x="551" y="128" width="11" height="11" rx="2" fill="#1b1926" opacity="1.00"/>
<rect x="551" y="141" width="11" height="11" rx="2" fill="#1b1926" opacity="1.00"/>
<rect x="551" y="154" width="11" height="11" rx="2" fill="#4ecdc4" opacity="0.50"/>
<rect x="551" y="167" width="11" height="11" rx="2" fill="#4ecdc4" opacity="0.28"/>
<rect x="551" y="180" width="11" height="11" rx="2" fill="#4ecdc4" opacity="0.72"/>
<rect x="551" y="193" width="11" height="11" rx="2" fill="#4ecdc4" opacity="0.50"/>
<rect x="551" y="206" width="11" height="11" rx="2" fill="#1b1926" opacity="1.00"/>
<rect x="564" y="128" width="11" height="11" rx="2" fill="#1b1926" opacity="1.00"/>
<rect x="564" y="141" width="11" height="11" rx="2" fill="#1b1926" opacity="1.00"/>
<rect x="564" y="154" width="11" height="11" rx="2" fill="#1b1926" opacity="1.00"/>
<rect x="564" y="167" width="11" height="11" rx="2" fill="#1b1926" opacity="1.00"/>
<rect x="564" y="180" width="11" height="11" rx="2" fill="#1b1926" opacity="1.00"/>
<rect x="564" y="193" width="11" height="11" rx="2" fill="#1b1926" opacity="1.00"/>
<rect x="564" y="206" width="11" height="11" rx="2" fill="#1b1926" opacity="1.00"/>
<rect x="577" y="128" width="11" height="11" rx="2" fill="#1b1926" opacity="1.00"/>
<rect x="577" y="141" width="11" height="11" rx="2" fill="#1b1926" opacity="1.00"/>
<rect x="577" y="154" width="11" height="11" rx="2" fill="#1b1926" opacity="1.00"/>
<rect x="577" y="167" width="11" height="11" rx="2" fill="#1b1926" opacity="1.00"/>
<rect x="577" y="180" width="11" height="11" rx="2" fill="#1b1926" opacity="1.00"/>
<rect x="577" y="193" width="11" height="11" rx="2" fill="#1b1926" opacity="1.00"/>
<rect x="577" y="206" width="11" height="11" rx="2" fill="#1b1926" opacity="1.00"/>
<rect x="590" y="128" width="11" height="11" rx="2" fill="#1b1926" opacity="1.00"/>
<rect x="590" y="141" width="11" height="11" rx="2" fill="#1b1926" opacity="1.00"/>
<rect x="590" y="154" width="11" height="11" rx="2" fill="#4ecdc4" opacity="1.00"/>
<rect x="590" y="167" width="11" height="11" rx="2" fill="#4ecdc4" opacity="1.00"/>
<rect x="590" y="180" width="11" height="11" rx="2" fill="#4ecdc4" opacity="0.50"/>
<rect x="590" y="193" width="11" height="11" rx="2" fill="#4ecdc4" opacity="0.72"/>
<rect x="590" y="206" width="11" height="11" rx="2" fill="#1b1926" opacity="1.00"/>
<rect x="603" y="128" width="11" height="11" rx="2" fill="#1b1926" opacity="1.00"/>
<rect x="603" y="141" width="11" height="11" rx="2" fill="#1b1926" opacity="1.00"/>
<rect x="603" y="154" width="11" height="11" rx="2" fill="#4ecdc4" opacity="0.50"/>
<rect x="603" y="167" width="11" height="11" rx="2" fill="#1b1926" opacity="1.00"/>
<rect x="603" y="180" width="11" height="11" rx="2" fill="#4ecdc4" opacity="0.50"/>
<rect x="603" y="193" width="11" height="11" rx="2" fill="#1b1926" opacity="1.00"/>
<rect x="603" y="206" width="11" height="11" rx="2" fill="#4ecdc4" opacity="0.50"/>
<rect x="616" y="128" width="11" height="11" rx="2" fill="#1b1926" opacity="1.00"/>
<rect x="616" y="141" width="11" height="11" rx="2" fill="#1b1926" opacity="1.00"/>
<rect x="616" y="154" width="11" height="11" rx="2" fill="#4ecdc4" opacity="0.28"/>
<rect x="616" y="167" width="11" height="11" rx="2" fill="#1b1926" opacity="1.00"/>
<rect x="616" y="180" width="11" height="11" rx="2" fill="#1b1926" opacity="1.00"/>
<rect x="616" y="193" width="11" height="11" rx="2" fill="#1b1926" opacity="1.00"/>
<rect x="616" y="206" width="11" height="11" rx="2" fill="#1b1926" opacity="1.00"/>
<rect x="629" y="128" width="11" height="11" rx="2" fill="#1b1926" opacity="1.00"/>
<rect x="629" y="141" width="11" height="11" rx="2" fill="#4ecdc4" opacity="0.28"/>
<rect x="629" y="154" width="11" height="11" rx="2" fill="#1b1926" opacity="1.00"/>
<rect x="629" y="167" width="11" height="11" rx="2" fill="#4ecdc4" opacity="0.72"/>
<rect x="629" y="180" width="11" height="11" rx="2" fill="#1b1926" opacity="1.00"/>
<rect x="629" y="193" width="11" height="11" rx="2" fill="#4ecdc4" opacity="0.72"/>
<rect x="629" y="206" width="11" height="11" rx="2" fill="#4ecdc4" opacity="0.28"/>
<rect x="642" y="128" width="11" height="11" rx="2" fill="#4ecdc4" opacity="0.28"/>
<rect x="642" y="141" width="11" height="11" rx="2" fill="#4ecdc4" opacity="0.72"/>
<rect x="642" y="154" width="11" height="11" rx="2" fill="#1b1926" opacity="1.00"/>
<rect x="642" y="167" width="11" height="11" rx="2" fill="#4ecdc4" opacity="0.72"/>
<rect x="642" y="180" width="11" height="11" rx="2" fill="#1b1926" opacity="1.00"/>
<rect x="642" y="193" width="11" height="11" rx="2" fill="#1b1926" opacity="1.00"/>
<rect x="642" y="206" width="11" height="11" rx="2" fill="#4ecdc4" opacity="0.72"/>
<rect x="655" y="128" width="11" height="11" rx="2" fill="#4ecdc4" opacity="0.28"/>
<rect x="655" y="141" width="11" height="11" rx="2" fill="#4ecdc4" opacity="0.50"/>
<rect x="655" y="154" width="11" height="11" rx="2" fill="#1b1926" opacity="1.00"/>
<rect x="655" y="167" width="11" height="11" rx="2" fill="#1b1926" opacity="1.00"/>
<rect x="655" y="180" width="11" height="11" rx="2" fill="#4ecdc4" opacity="0.28"/>
<rect x="655" y="193" width="11" height="11" rx="2" fill="#1b1926" opacity="1.00"/>
<rect x="655" y="206" width="11" height="11" rx="2" fill="#1b1926" opacity="1.00"/>
<rect x="668" y="128" width="11" height="11" rx="2" fill="#1b1926" opacity="1.00"/>
<rect x="668" y="141" width="11" height="11" rx="2" fill="#1b1926" opacity="1.00"/>
<rect x="668" y="154" width="11" height="11" rx="2" fill="#1b1926" opacity="1.00"/>
<rect x="668" y="167" width="11" height="11" rx="2" fill="#1b1926" opacity="1.00"/>
<rect x="668" y="180" width="11" height="11" rx="2" fill="#4ecdc4" opacity="0.72"/>
<rect x="668" y="193" width="11" height="11" rx="2" fill="#1b1926" opacity="1.00"/>
<rect x="668" y="206" width="11" height="11" rx="2" fill="#1b1926" opacity="1.00"/>
<rect x="681" y="128" width="11" height="11" rx="2" fill="#1b1926" opacity="1.00"/>
<rect x="681" y="141" width="11" height="11" rx="2" fill="#4ecdc4" opacity="0.50"/>
<rect x="681" y="154" width="11" height="11" rx="2" fill="#1b1926" opacity="1.00"/>
<rect x="681" y="167" width="11" height="11" rx="2" fill="#4ecdc4" opacity="0.28"/>
<rect x="681" y="180" width="11" height="11" rx="2" fill="#1b1926" opacity="1.00"/>
<rect x="681" y="193" width="11" height="11" rx="2" fill="#1b1926" opacity="1.00"/>
<rect x="681" y="206" width="11" height="11" rx="2" fill="#1b1926" opacity="1.00"/>
<rect x="694" y="128" width="11" height="11" rx="2" fill="#4ecdc4" opacity="0.72"/>
<rect x="694" y="141" width="11" height="11" rx="2" fill="#1b1926" opacity="1.00"/>
<rect x="694" y="154" width="11" height="11" rx="2" fill="#4ecdc4" opacity="0.72"/>
<rect x="694" y="167" width="11" height="11" rx="2" fill="#1b1926" opacity="1.00"/>
<rect x="694" y="180" width="11" height="11" rx="2" fill="#4ecdc4" opacity="0.72"/>
<rect x="694" y="193" width="11" height="11" rx="2" fill="#4ecdc4" opacity="0.50"/>
<rect x="694" y="206" width="11" height="11" rx="2" fill="#1b1926" opacity="1.00"/>
<rect x="707" y="128" width="11" height="11" rx="2" fill="#4ecdc4" opacity="0.50"/>
<rect x="707" y="141" width="11" height="11" rx="2" fill="#1b1926" opacity="1.00"/>
<rect x="707" y="154" width="11" height="11" rx="2" fill="#4ecdc4" opacity="0.50"/>
<rect x="707" y="167" width="11" height="11" rx="2" fill="#4ecdc4" opacity="0.50"/>
<rect x="707" y="180" width="11" height="11" rx="2" fill="#1b1926" opacity="1.00"/>
<rect x="707" y="193" width="11" height="11" rx="2" fill="#4ecdc4" opacity="0.28"/>
<rect x="707" y="206" width="11" height="11" rx="2" fill="#1b1926" opacity="1.00"/>
<rect x="720" y="128" width="11" height="11" rx="2" fill="#4ecdc4" opacity="0.50"/>
<rect x="720" y="141" width="11" height="11" rx="2" fill="#1b1926" opacity="1.00"/>
<rect x="720" y="154" width="11" height="11" rx="2" fill="#4ecdc4" opacity="0.50"/>
<rect x="720" y="167" width="11" height="11" rx="2" fill="#1b1926" opacity="1.00"/>
<rect x="720" y="180" width="11" height="11" rx="2" fill="#1b1926" opacity="1.00"/>
<rect x="720" y="193" width="11" height="11" rx="2" fill="#1b1926" opacity="1.00"/>
<rect x="720" y="206" width="11" height="11" rx="2" fill="#1b1926" opacity="1.00"/>
<rect x="733" y="128" width="11" height="11" rx="2" fill="#1b1926" opacity="1.00"/>
<rect x="733" y="141" width="11" height="11" rx="2" fill="#1b1926" opacity="1.00"/>
<rect x="733" y="154" width="11" height="11" rx="2" fill="#1b1926" opacity="1.00"/>
<text x="44" y="300" font-size="30" font-weight="800" fill="#4ecdc4">98</text>
<text x="44" y="320" font-size="12" font-weight="400" fill="#78788c">sessions</text>
<text x="196" y="300" font-size="30" font-weight="700" fill="#e6e6f0">2,203</text>
<text x="196" y="320" font-size="12" font-weight="400" fill="#78788c">messages</text>
<text x="348" y="300" font-size="30" font-weight="700" fill="#e6e6f0">2</text>
<text x="348" y="320" font-size="12" font-weight="400" fill="#78788c">agents</text>
<text x="470" y="276" font-size="11" font-weight="700" fill="#78788c" letter-spacing="1.5">TOP AGENTS</text>
<text x="470" y="299" font-size="10" font-weight="400" fill="#c9d1d9">claude</text>
<rect x="570" y="291" width="90" height="8" rx="4" fill="#4ecdc4"/>
<text x="672" y="299" font-size="10" font-weight="700" fill="#c9d1d9">64</text>
<text x="470" y="312" font-size="10" font-weight="400" fill="#c9d1d9">codex</text>
<rect x="570" y="304" width="47" height="8" rx="4" fill="#4ecdc4"/>
<text x="672" y="312" font-size="10" font-weight="700" fill="#c9d1d9">34</text>
<text x="40" y="402" font-size="11" font-weight="400" fill="#78788c">deja vdev</text>
<text x="760" y="402" font-size="12" font-weight="700" fill="#4ecdc4" text-anchor="end">vshulcz.github.io/deja-vu</text>
</g>
</svg>
